<svg width="658" height="416" viewBox="0 0 658 416" fill="none" xmlns="http://www.w3.org/2000/svg">
<path d="M126.88 25.5602H35.14V158.54H126.88V25.5602Z" fill="#E0E0E0"/>
<path d="M122.28 25.5602H30.54V158.54H122.28V25.5602Z" fill="#F5F5F5"/>
<path d="M110.89 39.9602H41.9401V144.13H110.89V39.9602Z" fill="white"/>
<path d="M110.89 144.14C110.89 144.14 110.89 143.96 110.89 143.63C110.89 143.3 110.89 142.79 110.89 142.15C110.89 140.84 110.89 138.92 110.89 136.44C110.89 131.44 110.89 124.17 110.82 114.98C110.82 96.6102 110.76 70.5902 110.71 39.9802L110.94 40.2102H42L42.25 39.9602C42.25 79.2602 42.25 115.49 42.25 144.14L42.05 143.94L92.24 144.04L106.1 144.09H109.74H111H109.78H106.18H92.36L42.05 144.19H41.85V143.99C41.85 115.34 41.85 79.1102 41.85 39.8102V39.5602H42.11H111.05H111.28V39.9702C111.28 70.6702 111.19 96.7302 111.17 115.14C111.17 124.31 111.12 131.56 111.1 136.54C111.1 139.01 111.1 140.91 111.1 142.21C111.1 142.84 111.1 143.33 111.1 143.66C111.1 143.99 110.89 144.14 110.89 144.14Z" fill="#E0E0E0"/>
<path d="M122.55 25.5602C122.076 26.4105 121.527 27.217 120.91 27.9702C119.85 29.3902 118.33 31.3302 116.61 33.4302C114.89 35.5302 113.27 37.3802 112.07 38.7002C111.467 39.4459 110.798 40.1354 110.07 40.7602C110.588 39.949 111.173 39.183 111.82 38.4702L116.24 33.1102L120.64 27.7202C121.214 26.9474 121.853 26.2248 122.55 25.5602Z" fill="#E0E0E0"/>
<path d="M111.24 143.8C114.664 149.235 118.689 154.267 123.24 158.8L111.24 143.8Z" fill="white"/>
<path d="M123.27 158.84C122.501 158.284 121.796 157.644 121.17 156.93C119.571 155.305 118.056 153.599 116.63 151.82C114.97 149.73 113.58 147.74 112.63 146.27C112.084 145.495 111.615 144.667 111.23 143.8C111.848 144.514 112.413 145.273 112.92 146.07C113.92 147.49 115.36 149.43 117.01 151.5C118.66 153.57 120.26 155.39 121.42 156.69C122.087 157.362 122.706 158.08 123.27 158.84Z" fill="#E0E0E0"/>
<path d="M30.53 158.43L42.53 143.61L30.53 158.43Z" fill="white"/>
<path d="M42.55 143.61C40.74 146.231 38.7975 148.757 36.73 151.18C34.7953 153.707 32.7257 156.127 30.53 158.43C32.34 155.809 34.2826 153.283 36.35 150.86C38.2847 148.334 40.3544 145.913 42.55 143.61Z" fill="#E0E0E0"/>
<path d="M30.54 25.5602C32.6131 27.7851 34.5626 30.122 36.38 32.5602C38.3264 34.8881 40.1425 37.3218 41.82 39.8502C39.7506 37.6248 37.8043 35.288 35.99 32.8502C34.0411 30.5219 32.2217 28.0882 30.54 25.5602Z" fill="#E0E0E0"/>
<path d="M89.4101 61.1102H66.3201V126.66H89.4101V61.1102Z" fill="#E0E0E0"/>
<path d="M250.57 6.18018V64.4202H166.93L163.92 6.59018L250.57 6.18018Z" fill="#E0E0E0"/>
<path d="M163.91 6.59015V64.2902H247.55V6.59015L163.91 6.59015Z" fill="white"/>
<path d="M247.95 64.6902H163.52V6.19019H247.95V64.6902ZM164.32 63.9002H247.16V6.97018H164.32V63.9002Z" fill="#E0E0E0"/>
<path d="M238.5 13.7601H172.98V57.1201H238.5V13.7601Z" fill="white"/>
<path d="M238.5 13.7602H237.24H233.64H220.14L172.98 13.9702L173.17 13.7802C173.17 27.0302 173.17 41.7102 173.17 57.1402L172.97 56.9402H238.49L238.32 57.1002C238.32 43.9102 238.39 33.1002 238.41 25.5502C238.41 21.7902 238.41 18.8502 238.41 16.8302C238.41 15.8302 238.41 15.0702 238.41 14.5402C238.41 14.0102 238.41 13.7402 238.41 13.7402C238.41 13.7402 238.41 13.9902 238.41 14.5002C238.41 15.0102 238.41 15.7802 238.41 16.7602C238.41 18.7602 238.41 21.7002 238.46 25.4502C238.46 33.0102 238.51 43.8702 238.54 57.1002V57.2702H238.38H172.86H172.65V57.0602C172.65 41.6302 172.65 26.9502 172.65 13.7002V13.5702H172.84L220.13 13.6602L233.59 13.7202H237.15H238.36L238.5 13.7602Z" fill="#E0E0E0"/>
<path d="M163.92 6.43018C164.437 6.67875 164.921 6.99119 165.36 7.36018C166.21 7.98018 167.36 8.86018 168.64 9.86018C169.92 10.8602 171 11.8602 171.78 12.5302C172.226 12.8924 172.629 13.3051 172.98 13.7602C171.387 12.646 169.851 11.4511 168.38 10.1802C166.815 9.026 165.326 7.77348 163.92 6.43018Z" fill="#E0E0E0"/>
<path d="M247.56 6.59021C246.185 7.94345 244.714 9.19665 243.16 10.3402C241.689 11.5884 240.132 12.7313 238.5 13.7602C239.875 12.407 241.346 11.1538 242.9 10.0102C244.369 8.75932 245.926 7.61634 247.56 6.59021Z" fill="#E0E0E0"/>
<path d="M247.49 64.3002L238.16 56.7402L247.49 64.3002Z" fill="white"/>
<path d="M238.16 56.7402C239.838 57.8403 241.441 59.0496 242.96 60.3602C244.557 61.5705 246.07 62.8868 247.49 64.3002C245.811 63.2067 244.21 61.997 242.7 60.6802C241.096 59.475 239.579 58.1584 238.16 56.7402Z" fill="#E0E0E0"/>
<path d="M163.92 64.2902C165.279 62.9535 166.733 61.7169 168.27 60.5902C169.725 59.3529 171.265 58.2201 172.88 57.2002C171.526 58.5446 170.071 59.7848 168.53 60.9102C167.077 62.1464 165.536 63.2761 163.92 64.2902Z" fill="#E0E0E0"/>
<path d="M186.28 27.2701V41.7902H227.51V27.2701H186.28Z" fill="#E0E0E0"/>
<path d="M591.33 267.14C591.33 267.14 583.82 263.64 577.93 281.24C572.04 298.84 570.29 308.75 570.29 308.75C570.29 308.75 568.6 312.51 565.91 310.62C563.22 308.73 559.05 302.86 555.22 304.62C551.39 306.38 550.57 311.26 552.38 317.95C554.19 324.64 557.62 339.43 557.92 340.77C558.22 342.11 557.75 344.16 555.72 343.17C553.69 342.18 541.27 331.93 536.72 338.1C532.17 344.27 540.31 362.1 541.16 364.04C542.01 365.98 541.74 366.94 540.84 367.59C539.94 368.24 536.11 364.4 532.46 361.59C528.81 358.78 524.1 356.25 521.79 360.03C519.48 363.81 520.68 377.9 537.35 398.58L545.7 407.65L557.83 405.14C583.46 398.19 592.7 387.49 593.05 383.07C593.4 378.65 588.05 377.97 583.5 378.07C578.95 378.17 573.56 379.02 573.22 377.96C572.88 376.9 573.22 375.96 575.04 374.96C576.86 373.96 593.89 364.21 593.87 356.56C593.85 348.91 577.78 349.93 575.55 349.56C573.32 349.19 574.16 347.21 575.17 346.32C576.18 345.43 587.66 335.45 593.05 331.1C598.44 326.75 600.74 322.44 598.58 318.65C596.42 314.86 589.68 317.29 586.4 317.24C583.12 317.19 583.95 313.15 583.95 313.15C583.95 313.15 588.35 304.15 593.95 286.4C599.55 268.65 591.17 267.12 591.17 267.12" fill="#EBEBEB"/>
<path d="M544.12 410.16C548.26 397.16 556 374.21 562.55 354.46C569.1 334.71 575.01 316.84 579.22 303.88C581.31 297.4 583 292.16 584.22 288.52C584.81 286.72 585.22 285.31 585.58 284.34C585.733 283.88 585.853 283.52 585.94 283.26C586.02 283.01 586.07 282.89 586.07 282.89C586.07 282.89 586.07 283.02 585.97 283.27C585.87 283.52 585.79 283.89 585.65 284.36C585.35 285.36 584.92 286.75 584.36 288.56C583.24 292.21 581.59 297.47 579.51 303.96C575.37 316.96 569.51 334.84 562.96 354.58C556.41 374.32 548.62 397.28 544.41 410.24" fill="#E0E0E0"/>
<path d="M560.73 313.05C560.896 313.297 561.04 313.558 561.16 313.83C561.42 314.34 561.77 315.1 562.16 316.03C563.01 317.9 564.16 320.51 565.27 323.41C566.38 326.31 567.43 328.86 568.27 330.84C568.62 331.73 568.93 332.49 569.17 333.09C569.307 333.356 569.408 333.638 569.47 333.93C569.304 333.684 569.16 333.423 569.04 333.15C568.78 332.64 568.43 331.89 568.04 330.95C567.21 329.07 566.14 326.45 564.98 323.55C563.82 320.65 562.78 318.11 561.98 316.14L561.06 313.89C560.915 313.625 560.804 313.343 560.73 313.05Z" fill="#E0E0E0"/>
<path d="M570.64 333.97C570.59 333.87 575.87 331.37 582.43 328.37C588.99 325.37 594.33 323.03 594.43 323.13C594.53 323.23 589.19 325.73 582.63 328.72C576.07 331.71 570.64 334.08 570.64 333.97Z" fill="#E0E0E0"/>
<path d="M559.18 363.85C559.472 363.756 559.774 363.695 560.08 363.67L562.53 363.31C564.59 363.01 567.45 362.58 570.58 361.98C573.71 361.38 576.52 360.77 578.58 360.29L580.99 359.74C581.282 359.649 581.584 359.595 581.89 359.58C581.613 359.706 581.325 359.806 581.03 359.88C580.47 360.05 579.66 360.29 578.65 360.56C576.65 361.1 573.81 361.77 570.65 362.36C567.49 362.95 564.65 363.36 562.56 363.58C561.56 363.7 560.68 363.78 560.09 363.82C559.788 363.857 559.484 363.867 559.18 363.85Z" fill="#E0E0E0"/>
<path d="M546.08 346.88C546.296 347.06 546.491 347.265 546.66 347.49L548.13 349.25C549.36 350.74 551.03 352.82 552.86 355.13C554.69 357.44 556.34 359.54 557.51 361.08L558.88 362.91C559.059 363.127 559.217 363.362 559.35 363.61C559.131 363.433 558.936 363.228 558.77 363L557.3 361.25C556.07 359.75 554.4 357.68 552.56 355.37C550.72 353.06 549.09 350.95 547.92 349.42L546.55 347.59C546.366 347.373 546.208 347.134 546.08 346.88Z" fill="#E0E0E0"/>
<path d="M532.64 371.97C532.91 372.207 533.155 372.472 533.37 372.76C533.87 373.34 534.5 374.1 535.26 375C536.85 376.9 539.01 379.55 541.39 382.49C543.77 385.43 545.9 388.1 547.39 390.05L549.19 392.36C549.419 392.638 549.623 392.936 549.8 393.25C549.536 393.007 549.292 392.742 549.07 392.46L547.18 390.22C545.6 388.31 543.43 385.67 541.05 382.73C538.67 379.79 536.54 377.12 535.05 375.17C534.33 374.24 533.72 373.46 533.26 372.85C533.025 372.578 532.817 372.283 532.64 371.97Z" fill="#E0E0E0"/>
<path d="M549.64 392.62C550.007 392.509 550.381 392.425 550.76 392.37L553.85 391.81C556.46 391.33 560.06 390.65 564.01 389.81C567.96 388.97 571.52 388.09 574.09 387.44L577.14 386.68C577.51 386.57 577.887 386.49 578.27 386.44C577.919 386.6 577.554 386.727 577.18 386.82C576.47 387.04 575.44 387.35 574.18 387.7C571.62 388.42 568.07 389.33 564.11 390.18C560.15 391.03 556.54 391.68 553.92 392.09C552.61 392.3 551.54 392.45 550.81 392.54C550.423 392.604 550.032 392.631 549.64 392.62Z" fill="#E0E0E0"/>
<path d="M613.64 409.8C613.64 409.94 476.25 410.06 306.82 410.06C137.39 410.06 0 409.97 0 409.8C0 409.63 137.36 409.54 306.86 409.54C476.36 409.54 613.64 409.66 613.64 409.8Z" fill="#263238"/>
<path d="M425.997 61.7947L416.481 69.9327L429.182 84.7831L438.698 76.6451L425.997 61.7947Z" fill="#263238"/>
<path d="M434.22 60.6404L414.64 77.4604L400.91 61.4604C406.31 53.8804 412.75 48.1604 420.46 44.6404L434.22 60.6404Z" fill="#455A64"/>
<path d="M417.94 74.6404C417.83 74.7404 414.52 71.1004 410.54 66.5304C406.56 61.9604 403.42 58.1804 403.54 58.0804C403.66 57.9804 406.96 61.6204 410.94 66.1904C414.92 70.7604 418.05 74.5504 417.94 74.6404Z" fill="#263238"/>
<path d="M421.64 71.4403C420.849 70.6705 420.114 69.845 419.44 68.9703C418.12 67.4203 416.33 65.2703 414.36 62.8703L409.36 56.7103L407.86 54.8403C407.5 54.3803 407.31 54.1703 407.31 54.1403C407.51 53.9603 410.84 57.7503 414.78 62.5403C416.78 64.9403 418.5 67.1303 419.78 68.7403C420.478 69.5838 421.101 70.4873 421.64 71.4403Z" fill="#263238"/>
<path d="M426.64 67.1703C425.837 66.403 425.092 65.5775 424.41 64.7004C423.08 63.1304 421.28 60.9404 419.3 58.5104L414.3 52.2504L412.8 50.3404C412.606 50.1127 412.432 49.8684 412.28 49.6104C413.139 50.3202 413.911 51.1291 414.58 52.0204C415.93 53.5704 417.75 55.7504 419.72 58.1804C421.69 60.6104 423.46 62.8404 424.72 64.4704C425.435 65.3148 426.077 66.218 426.64 67.1703Z" fill="#263238"/>
<path d="M431.15 63.1703C431.04 63.2603 427.75 59.5903 423.8 54.9703C419.85 50.3503 416.75 46.5203 416.86 46.4203C416.97 46.3203 420.25 50.0003 424.2 54.6303C428.15 59.2603 431.26 63.0803 431.15 63.1703Z" fill="#263238"/>
<path d="M593.556 71.9034L584.906 62.8518L570.779 76.3516L579.429 85.4032L593.556 71.9034Z" fill="#263238"/>
<path d="M593.97 80.8103L576.15 62.1604L591.38 47.6104C599.22 52.6104 605.28 58.7404 609.19 66.2604L593.97 80.8103Z" fill="#455A64"/>
<path d="M579.13 65.2903C579.03 65.1803 582.48 61.6803 586.84 57.4703C591.2 53.2603 594.84 49.9303 594.91 50.0303C594.98 50.1303 591.56 53.6303 587.2 57.8503C582.84 62.0703 579.23 65.3903 579.13 65.2903Z" fill="#263238"/>
<path d="M582.53 68.8403C583.241 68.0006 584.016 67.2181 584.85 66.5003C586.32 65.1003 588.38 63.1903 590.67 61.0903L596.56 55.7603L598.35 54.1603C598.78 53.7803 598.99 53.5903 599.02 53.5803C599.21 53.7703 595.6 57.3003 591.02 61.4803C588.73 63.5703 586.63 65.4803 585.09 66.7703C584.292 67.5265 583.437 68.2187 582.53 68.8403Z" fill="#263238"/>
<path d="M587.05 73.5703C587.77 72.7226 588.556 71.9335 589.4 71.2103C590.89 69.8003 592.98 67.8803 595.31 65.7803L601.31 60.4403L603.14 58.8403C603.363 58.6414 603.597 58.4545 603.84 58.2803C603.179 59.1776 602.413 59.9933 601.56 60.7103C600.08 62.1403 597.99 64.0703 595.67 66.1703C593.35 68.2703 591.21 70.1703 589.67 71.4903C588.851 72.2499 587.976 72.9453 587.05 73.5703Z" fill="#263238"/>
<path d="M591.28 77.8803C591.18 77.7703 594.68 74.3003 599.09 70.1103C603.5 65.9203 607.16 62.6203 607.26 62.7303C607.36 62.8403 603.86 66.3103 599.45 70.4903C595.04 74.6703 591.38 77.9703 591.28 77.8803Z" fill="#263238"/>
<path d="M513.72 28.6903H498.9V51.8203H513.72V28.6903Z" fill="#263238"/>
<path d="M521.64 35.6103H491.14V10.6803C501.83 8.04033 512.03 7.88033 521.67 10.6803L521.64 35.6103Z" fill="#FF725E"/>
<path d="M522.03 10.7803C521.673 11.0038 521.294 11.1914 520.9 11.3403C519.856 11.8002 518.784 12.1943 517.69 12.5203C516.052 13.0249 514.381 13.4191 512.69 13.7003C510.636 14.0263 508.56 14.2001 506.48 14.2203C504.401 14.2234 502.326 14.0696 500.27 13.7603C498.58 13.4981 496.909 13.1206 495.27 12.6303C494.175 12.31 493.1 11.926 492.05 11.4803C491.653 11.3426 491.274 11.158 490.92 10.9303C490.92 10.8403 492.6 11.5303 495.37 12.2703C496.996 12.6999 498.645 13.0338 500.31 13.2703C502.345 13.5457 504.396 13.686 506.45 13.6903C508.505 13.6669 510.556 13.5066 512.59 13.2103C514.248 12.9705 515.89 12.6367 517.51 12.2103C520.35 11.4003 521.99 10.6903 522.03 10.7803Z" fill="#263238"/>
<path d="M501.22 35.5403C501.08 35.5403 500.96 30.7503 500.96 24.8503C500.96 18.9503 501.08 14.1603 501.22 14.1603C501.36 14.1603 501.48 18.9403 501.48 24.8503C501.48 30.7603 501.37 35.5403 501.22 35.5403Z" fill="#263238"/>
<path d="M507.03 35.6803C506.89 35.6803 506.77 30.8703 506.77 24.9403C506.77 19.0103 506.89 14.2103 507.03 14.2103C507.17 14.2103 507.29 19.0103 507.29 24.9403C507.29 30.8703 507.18 35.6803 507.03 35.6803Z" fill="#263238"/>
<path d="M512.84 35.5904C512.7 35.5904 512.58 30.7803 512.58 24.8503C512.58 18.9203 512.7 14.1104 512.84 14.1104C512.98 14.1104 513.1 18.9203 513.1 24.8503C513.1 30.7803 512.99 35.5904 512.84 35.5904Z" fill="#263238"/>
<path d="M517.64 35.5904C517.49 35.5904 517.38 30.3904 517.38 23.9804C517.38 17.5704 517.49 12.3704 517.64 12.3704C517.79 12.3704 517.9 17.5704 517.9 23.9804C517.9 30.3904 517.82 35.5904 517.64 35.5904Z" fill="#263238"/>
<path d="M495.73 35.4403C495.59 35.4403 495.47 30.2403 495.47 23.8303C495.47 17.4203 495.59 12.2203 495.73 12.2203C495.87 12.2203 495.99 17.4203 495.99 23.8303C495.99 30.2403 495.88 35.4403 495.73 35.4403Z" fill="#263238"/>
<path d="M580.767 228.742C622.877 186.632 622.877 118.358 580.767 76.2473C538.657 34.137 470.382 34.1371 428.272 76.2473C386.162 118.358 386.162 186.632 428.272 228.742C470.382 270.852 538.657 270.852 580.767 228.742Z" fill="#FF725E"/>
<path d="M504.52 242.2C554.535 242.2 595.08 201.655 595.08 151.64C595.08 101.625 554.535 61.0803 504.52 61.0803C454.505 61.0803 413.96 101.625 413.96 151.64C413.96 201.655 454.505 242.2 504.52 242.2Z" fill="#FAFAFA"/>
<path d="M595.08 151.64C595.08 151.64 595.08 151.15 595.01 150.18C594.94 149.21 595.01 147.76 594.82 145.87C594.463 140.356 593.6 134.886 592.24 129.53C591.26 125.665 590.021 121.869 588.53 118.17C586.778 113.76 584.671 109.5 582.23 105.43C576.258 95.4889 568.453 86.7713 559.23 79.7403C548.036 71.224 535.006 65.4434 521.18 62.8603C509.461 60.7041 497.436 60.8434 485.77 63.2703C481.674 64.1595 477.638 65.3119 473.69 66.7203C456.888 72.8407 442.275 83.7977 431.69 98.2103C428.928 101.964 426.467 105.929 424.33 110.07C423.22 112.14 422.27 114.29 421.33 116.45C420.39 118.61 419.55 120.85 418.84 123.13C417.305 127.693 416.155 132.376 415.4 137.13C414.641 141.937 414.243 146.794 414.21 151.66C414.245 156.529 414.64 161.389 415.39 166.2C416.156 170.952 417.306 175.634 418.83 180.2C419.55 182.47 420.45 184.67 421.32 186.87C422.19 189.07 423.24 191.19 424.32 193.26C426.457 197.404 428.921 201.37 431.69 205.12C442.272 219.538 456.886 230.499 473.69 236.62C477.638 238.029 481.674 239.181 485.77 240.07C489.764 240.905 493.81 241.47 497.88 241.76C505.669 242.349 513.502 241.919 521.18 240.48C535.006 237.897 548.036 232.117 559.23 223.6C568.456 216.572 576.261 207.854 582.23 197.91C584.669 193.84 586.776 189.58 588.53 185.17C592.082 176.329 594.205 166.979 594.82 157.47C594.99 155.58 594.96 154.13 595.01 153.16C595.06 152.19 595.08 151.69 595.08 151.69C595.08 151.69 595.08 152.19 595.08 153.16C595.08 154.13 595.08 155.58 594.94 157.47C594.393 167.005 592.309 176.389 588.77 185.26C587.029 189.691 584.928 193.972 582.49 198.06C576.532 208.052 568.726 216.818 559.49 223.89C548.257 232.459 535.175 238.28 521.29 240.89C513.578 242.348 505.708 242.791 497.88 242.21C493.79 241.92 489.724 241.356 485.71 240.52C481.589 239.634 477.53 238.478 473.56 237.06C456.659 230.917 441.957 219.903 431.31 205.41C428.531 201.639 426.057 197.654 423.91 193.49C422.79 191.41 421.83 189.23 420.85 187.06C419.87 184.89 419.07 182.64 418.35 180.35C416.816 175.766 415.659 171.063 414.89 166.29C413.303 156.608 413.303 146.732 414.89 137.05C415.663 132.298 416.82 127.616 418.35 123.05C419.08 120.76 419.98 118.55 420.86 116.34C421.74 114.13 422.79 112 423.91 109.92C426.064 105.759 428.542 101.773 431.32 98.0003C441.962 83.5092 456.661 72.4986 473.56 66.3603C477.527 64.9439 481.582 63.7882 485.7 62.9003C489.718 62.0656 493.787 61.501 497.88 61.2103C505.704 60.6291 513.571 61.0729 521.28 62.5303C535.169 65.1289 548.253 70.9518 559.48 79.5303C568.716 86.6071 576.522 95.3763 582.48 105.37C586.959 112.914 590.327 121.065 592.48 129.57C593.814 134.945 594.648 140.432 594.97 145.96C595.12 147.85 595.07 149.3 595.11 150.27C595.15 151.24 595.08 151.64 595.08 151.64Z" fill="#263238"/>
<path d="M581.79 148.36C578.92 148.48 576.58 148.36 576.57 148.11C576.56 147.86 578.87 147.52 581.74 147.36C584.61 147.2 586.95 147.3 586.97 147.6C586.99 147.9 584.64 148.24 581.79 148.36Z" fill="#263238"/>
<path d="M579.86 169.21C577.06 168.55 574.86 167.82 574.86 167.57C574.86 167.32 577.24 167.62 580.05 168.23C582.86 168.84 585.05 169.58 585.05 169.87C585.05 170.16 582.64 169.86 579.86 169.21Z" fill="#263238"/>
<path d="M572.39 188.76C569.86 187.38 567.92 186.07 568.04 185.85C568.16 185.63 570.32 186.54 572.86 187.85C575.4 189.16 577.35 190.51 577.21 190.77C577.07 191.03 574.91 190.15 572.39 188.76Z" fill="#263238"/>
<path d="M559.94 205.6C557.88 203.6 556.35 201.82 556.53 201.6C556.71 201.38 558.53 202.87 560.63 204.85C562.73 206.83 564.24 208.6 564.04 208.85C563.84 209.1 561.99 207.61 559.94 205.6Z" fill="#263238"/>
<path d="M543.44 218.5C542 216.01 541 213.89 541.22 213.76C541.44 213.63 542.82 215.53 544.3 217.99C545.78 220.45 546.78 222.57 546.53 222.73C546.28 222.89 544.89 220.97 543.44 218.5Z" fill="#263238"/>
<path d="M524.09 226.49C523.37 223.7 522.98 221.39 523.23 221.33C523.48 221.27 524.29 223.46 525.06 226.23C525.83 229 526.21 231.31 525.92 231.39C525.63 231.47 524.81 229.27 524.09 226.49Z" fill="#263238"/>
<path d="M503.3 228.97C503.3 226.09 503.59 223.76 503.84 223.76C504.09 223.76 504.3 226.1 504.3 228.97C504.3 231.84 504.05 234.18 503.76 234.18C503.47 234.18 503.25 231.86 503.3 228.97Z" fill="#263238"/>
<path d="M482.64 225.84C483.46 223.08 484.32 220.91 484.57 220.98C484.82 221.05 484.38 223.35 483.57 226.12C482.76 228.89 481.93 231.12 481.64 230.98C481.35 230.84 481.77 228.6 482.64 225.84Z" fill="#263238"/>
<path d="M463.51 217.23C465.04 214.8 466.45 212.93 466.67 213.06C466.89 213.19 465.85 215.3 464.36 217.76C462.87 220.22 461.45 222.08 461.2 221.93C460.95 221.78 461.98 219.67 463.51 217.23Z" fill="#263238"/>
<path d="M447.42 203.83C449.55 201.89 451.42 200.47 451.58 200.66C451.74 200.85 450.2 202.59 448.1 204.56C446 206.53 444.15 207.95 443.94 207.74C443.73 207.53 445.3 205.77 447.42 203.83Z" fill="#263238"/>
<path d="M435.5 186.61C438.07 185.32 440.25 184.45 440.36 184.67C440.47 184.89 438.51 186.16 435.96 187.5C433.41 188.84 431.24 189.71 431.1 189.44C430.96 189.17 432.94 187.91 435.5 186.61Z" fill="#263238"/>
<path d="M428.64 166.83C431.47 166.27 433.8 166.02 433.85 166.27C433.9 166.52 431.66 167.21 428.85 167.81C426.04 168.41 423.7 168.66 423.64 168.37C423.58 168.08 425.84 167.39 428.64 166.83Z" fill="#263238"/>
<path d="M427.37 145.97C430.24 146.18 432.55 146.56 432.54 146.81C432.53 147.06 430.18 147.13 427.31 146.96C424.44 146.79 422.12 146.42 422.14 146.12C422.16 145.82 424.5 145.71 427.37 145.97Z" fill="#263238"/>
<path d="M431.72 125.44C434.43 126.44 436.55 127.44 436.47 127.65C436.39 127.86 434.11 127.32 431.39 126.38C428.67 125.44 426.55 124.46 426.64 124.18C426.73 123.9 429.02 124.46 431.72 125.44Z" fill="#263238"/>
<path d="M441.43 106.89C443.77 108.56 445.55 110.08 445.43 110.29C445.31 110.5 443.25 109.34 440.88 107.71C438.51 106.08 436.73 104.56 436.88 104.31C437.03 104.06 439.08 105.22 441.43 106.89Z" fill="#263238"/>
<path d="M455.74 91.6103C457.55 93.8403 458.86 95.7803 458.67 95.9503C458.48 96.1203 456.81 94.4503 454.97 92.2403C453.13 90.0303 451.81 88.1003 452.04 87.9103C452.27 87.7203 453.93 89.3803 455.74 91.6103Z" fill="#263238"/>
<path d="M473.64 80.7103C474.78 83.3503 475.53 85.5703 475.29 85.7103C475.05 85.8503 473.91 83.7703 472.73 81.1503C471.55 78.5303 470.8 76.3103 471.07 76.1503C471.34 75.9903 472.47 78.0803 473.64 80.7103Z" fill="#263238"/>
<path d="M493.78 75.0404C494.17 77.8904 494.29 80.2304 494.03 80.2704C493.77 80.3104 493.22 78.0304 492.79 75.1904C492.36 72.3504 492.24 70.0004 492.53 69.9604C492.82 69.9204 493.39 72.1904 493.78 75.0404Z" fill="#263238"/>
<path d="M514.72 74.9704C514.34 77.8204 513.83 80.1104 513.58 80.0804C513.33 80.0504 513.39 77.7004 513.73 74.8504C514.07 72.0004 514.58 69.7004 514.87 69.7404C515.16 69.7804 515.1 72.1104 514.72 74.9704Z" fill="#263238"/>
<path d="M534.91 80.5004C533.78 83.1504 532.67 85.2104 532.43 85.1104C532.19 85.0104 532.9 82.7804 533.99 80.1104C535.08 77.4404 536.2 75.3904 536.47 75.5104C536.74 75.6304 536.05 77.8604 534.91 80.5004Z" fill="#263238"/>
<path d="M552.87 91.2703C551.07 93.5203 549.45 95.2103 549.25 95.0503C549.05 94.8903 550.32 92.9203 552.09 90.6503C553.86 88.3803 555.47 86.6503 555.71 86.8803C555.95 87.1103 554.64 89.0303 552.87 91.2703Z" fill="#263238"/>
<path d="M567.3 106.45C564.96 108.13 562.95 109.33 562.8 109.12C562.65 108.91 564.4 107.36 566.71 105.64C569.02 103.92 571.03 102.73 571.21 102.97C571.39 103.21 569.64 104.77 567.3 106.45Z" fill="#263238"/>
<path d="M577.13 124.97C574.43 125.97 572.13 126.56 572.07 126.33C572.01 126.1 574.07 125.06 576.78 124.03C579.49 123 581.72 122.39 581.83 122.67C581.94 122.95 579.83 123.97 577.13 124.97Z" fill="#263238"/>
<path d="M581.64 145.39C578.77 145.62 576.43 145.6 576.41 145.39C576.39 145.18 578.69 144.72 581.55 144.39C584.41 144.06 586.76 144.14 586.78 144.44C586.8 144.74 584.48 145.16 581.64 145.39Z" fill="#263238"/>
<path d="M469.35 53.6703L469.04 53.8103L468.12 54.1803C467.32 54.5203 466.12 54.9303 464.59 55.6003C460.279 57.4025 456.093 59.4905 452.06 61.8503C449.5 63.3303 446.79 65.1003 443.94 67.0903C441.09 69.0803 438.18 71.4003 435.27 74.0103C422.494 85.2716 412.735 99.5475 406.88 115.54C405.51 119.2 404.48 122.78 403.59 126.13C402.7 129.48 402.1 132.68 401.65 135.6C400.92 140.214 400.496 144.871 400.38 149.54C400.3 151.2 400.38 152.48 400.38 153.35C400.38 153.77 400.38 154.09 400.38 154.35C400.389 154.463 400.389 154.577 400.38 154.69C400.367 154.581 400.367 154.47 400.38 154.36C400.38 154.11 400.38 153.78 400.38 153.36C400.38 152.49 400.27 151.21 400.32 149.55C400.356 144.863 400.727 140.185 401.43 135.55C401.85 132.61 402.5 129.42 403.31 126.03C404.214 122.427 405.302 118.872 406.57 115.38C412.396 99.2804 422.212 84.9223 435.1 73.6503C438.03 71.0403 441.01 68.7903 443.83 66.7403C446.65 64.6903 449.43 62.9903 452.02 61.5303C456.08 59.1948 460.301 57.1497 464.65 55.4103C466.18 54.7703 467.41 54.4103 468.23 54.0803L469.17 53.7603C469.228 53.7259 469.288 53.6958 469.35 53.6703Z" fill="white"/>
<path d="M499.45 47.8303C498.422 48.0438 497.379 48.1809 496.33 48.2403C494.39 48.4403 491.73 48.7303 488.79 49.1103C485.85 49.4903 483.2 49.8903 481.28 50.1903C480.252 50.4018 479.209 50.5355 478.16 50.5903C479.155 50.2436 480.179 49.9892 481.22 49.8303C483.13 49.4403 485.78 48.9803 488.72 48.6003C491.66 48.2203 494.35 47.9803 496.3 47.8703C497.346 47.7584 498.401 47.745 499.45 47.8303Z" fill="white"/>
<g opacity="0.4">
<path opacity="0.4" d="M432.14 206.08C432.14 206.08 479.07 280.14 551.87 242.21C627.87 202.61 585.87 111.84 585.87 111.84C585.87 111.84 621.63 184.18 547.55 231.34C529.1 243.09 509.01 243.1 493.69 241.56C454.54 237.64 432.14 206.08 432.14 206.08Z" fill="black"/>
</g>
<path d="M529.76 103.51C530.211 116.792 529.81 130.09 528.56 143.32C528.1 148.11 527.56 152.95 525.71 157.4C523.86 161.85 520.71 165.93 516.27 167.81C511.83 169.69 506.15 168.91 503.06 165.23L529.76 103.51Z" fill="#E0E0E0"/>
<path d="M502.55 144.5L535.46 89.0803L515.6 151.65L505.45 154.68L502.55 144.5Z" fill="#FF725E"/>
<g opacity="0.4">
<path opacity="0.4" d="M535.46 89.0803L511.05 145.71L515.6 151.65L535.46 89.0803Z" fill="black"/>
</g>
<path d="M505.45 165.27C511.299 165.27 516.04 160.529 516.04 154.68C516.04 148.832 511.299 144.09 505.45 144.09C499.601 144.09 494.86 148.832 494.86 154.68C494.86 160.529 499.601 165.27 505.45 165.27Z" fill="#FAFAFA"/>
<path d="M516.04 154.68C515.945 153.82 515.801 152.965 515.61 152.12C514.997 149.84 513.638 147.829 511.75 146.41C510.363 145.367 508.737 144.687 507.02 144.434C505.303 144.181 503.549 144.362 501.92 144.96C500.982 145.292 500.102 145.768 499.31 146.37C498.467 146.982 497.728 147.725 497.12 148.57C495.82 150.342 495.119 152.483 495.119 154.68C495.119 156.878 495.82 159.018 497.12 160.79C498.334 162.438 500.002 163.696 501.92 164.41C503.289 164.912 504.747 165.122 506.201 165.028C507.656 164.933 509.074 164.535 510.366 163.86C511.658 163.185 512.794 162.248 513.703 161.108C514.611 159.968 515.271 158.65 515.64 157.24C515.833 156.396 515.977 155.541 516.07 154.68C516.132 155.557 516.054 156.438 515.84 157.29C515.294 159.675 513.936 161.795 512 163.29C510.673 164.321 509.12 165.023 507.47 165.34C505.571 165.703 503.61 165.551 501.79 164.9C500.801 164.559 499.873 164.063 499.04 163.43C498.156 162.791 497.379 162.015 496.74 161.13C495.363 159.277 494.62 157.029 494.62 154.72C494.62 152.411 495.363 150.164 496.74 148.31C497.382 147.428 498.158 146.652 499.04 146.01C499.877 145.387 500.805 144.894 501.79 144.55C503.609 143.895 505.572 143.743 507.47 144.11C509.487 144.498 511.349 145.459 512.833 146.878C514.318 148.297 515.362 150.113 515.84 152.11C516.04 152.951 516.107 153.818 516.04 154.68Z" fill="#263238"/>
<path d="M513.208 156.268C514.071 152.002 511.312 147.845 507.046 146.983C502.78 146.12 498.623 148.879 497.761 153.145C496.898 157.411 499.657 161.568 503.923 162.43C508.189 163.293 512.346 160.534 513.208 156.268Z" fill="#455A64"/>
<path d="M421.96 408.86H474.06L449.77 199.52L421.96 408.86Z" fill="#E0E0E0"/>
<path d="M165.6 199.52L131.68 411.33L421.13 415.1L449.77 199.52H165.6Z" fill="#FAFAFA"/>
<path d="M436.88 296.55H150.06L156.3 257.55H442.06L436.88 296.55Z" fill="#EBEBEB"/>
<path d="M436.9 296.58H150.03L156.28 257.58H442.09L436.9 296.58ZM150.09 296.53H436.86L442.03 257.53H156.33L150.09 296.53Z" fill="#263238"/>
<path d="M165.6 199.52L156.3 257.55H442.06L449.77 199.52H165.6Z" fill="#FF725E"/>
<path d="M165.64 199.52L449.81 199.28H450.08V199.55C441.71 262.66 432.21 334.23 422.17 409.82V410.05H418.69L131.92 409.97H131.64V409.72L165.64 199.52C165.36 201.26 152.44 282.47 132.17 409.82L131.96 409.57H418.62H421.87L421.62 409.79C431.67 334.2 441.19 262.64 449.62 199.53L449.85 199.79L165.64 199.52Z" fill="#263238"/>
<path d="M442.06 257.55C442.06 257.69 378.06 257.81 299.19 257.81C220.32 257.81 156.3 257.69 156.3 257.55C156.3 257.41 220.3 257.29 299.19 257.29C378.08 257.29 442.06 257.4 442.06 257.55Z" fill="#263238"/>
<path d="M436.88 296.55C436.88 296.7 372.54 296.81 293.2 296.81C213.86 296.81 149.51 296.7 149.51 296.55C149.51 296.4 213.83 296.29 293.2 296.29C372.57 296.29 436.88 296.41 436.88 296.55Z" fill="#263238"/>
<path d="M431.04 332.44C431.04 332.59 366.71 332.7 287.37 332.7C208.03 332.7 143.64 332.59 143.64 332.44C143.64 332.29 207.96 332.18 287.33 332.18C366.7 332.18 431.04 332.3 431.04 332.44Z" fill="#263238"/>
<path d="M425.21 368.33C425.21 368.47 360.87 368.59 281.53 368.59C202.19 368.59 137.84 368.47 137.84 368.33C137.84 368.19 202.16 368.07 281.53 368.07C360.9 368.07 425.21 368.19 425.21 368.33Z" fill="#263238"/>
<path d="M172.31 410.11C172.17 410.11 177.42 375.91 184.05 333.79C190.68 291.67 196.15 257.52 196.29 257.55C196.43 257.58 191.18 291.73 184.56 333.87C177.94 376.01 172.46 410.13 172.31 410.11Z" fill="#263238"/>
<path d="M216.54 410.11C216.39 410.11 221.65 375.91 228.27 333.79C234.89 291.67 240.37 257.52 240.52 257.55C240.67 257.58 235.41 291.73 228.78 333.87C222.15 376.01 216.64 410.13 216.54 410.11Z" fill="#263238"/>
<path d="M257.64 408.58C257.5 408.58 262.7 374.73 269.25 333.03C275.8 291.33 281.25 257.52 281.38 257.55C281.51 257.58 276.32 291.39 269.77 333.11C263.22 374.83 257.77 408.6 257.64 408.58Z" fill="#263238"/>
<path d="M298.29 409.79C298.15 409.79 303.39 375.66 310 333.63C316.61 291.6 322.08 257.52 322.22 257.55C322.36 257.58 317.12 291.66 310.51 333.71C303.9 375.76 298.43 409.81 298.29 409.79Z" fill="#263238"/>
<path d="M339.14 409.79C339 409.79 344.24 375.66 350.85 333.63C357.46 291.6 362.93 257.52 363.07 257.55C363.21 257.58 357.98 291.66 351.37 333.71C344.76 375.76 339.29 409.81 339.14 409.79Z" fill="#263238"/>
<path d="M379.96 409.97C379.82 409.97 385.07 375.8 391.69 333.7C398.31 291.6 403.78 257.48 403.93 257.51C404.08 257.54 398.82 291.67 392.2 333.78C385.58 375.89 380.1 410.03 379.96 409.97Z" fill="#263238"/>
<g opacity="0.2">
<path opacity="0.2" d="M354.26 260.27C359.18 258.09 362.26 252.97 363.53 247.74C364.8 242.51 364.6 237.05 364.79 231.66C364.98 226.27 365.62 220.72 368.37 216.09C370 213.36 372.29 211.09 374.1 208.46C375.91 205.83 377.25 202.63 376.58 199.46L345.8 199.62L354.26 260.27Z" fill="black"/>
</g>
<path d="M226.64 299.44C226.558 299.574 226.457 299.695 226.34 299.8L225.42 300.8C224.61 301.63 223.42 302.8 221.92 304.26C218.92 307.14 214.75 311.06 210 315.26C205.25 319.46 200.85 323.12 197.62 325.72C196 327.02 194.68 328.06 193.76 328.72L192.69 329.52C192.571 329.624 192.436 329.709 192.29 329.77C192.29 329.77 192.4 329.64 192.62 329.44L193.62 328.56L197.37 325.39C200.55 322.72 204.91 319.01 209.65 314.83C214.39 310.65 218.65 306.77 221.65 303.96L225.26 300.63L226.26 299.74C226.374 299.625 226.501 299.524 226.64 299.44Z" fill="#263238"/>
<path d="M224.33 330.17C223.905 329.799 223.508 329.398 223.14 328.97L220.01 325.63C217.31 322.76 213.69 318.9 209.7 314.63L199.28 303.73L196.12 300.42C195.721 300.026 195.35 299.605 195.01 299.16C195.463 299.495 195.885 299.87 196.27 300.28C197.05 301.02 198.17 302.11 199.54 303.47C202.28 306.19 206.02 310 210.07 314.28C214.12 318.56 217.72 322.5 220.28 325.39C221.56 326.83 222.59 328.01 223.28 328.83C223.671 329.244 224.022 329.692 224.33 330.17Z" fill="#263238"/>
<path d="M235.01 308.63C235.01 308.63 235.11 308.37 235.32 307.86C235.652 307.12 236.054 306.414 236.52 305.75C238.359 303.181 240.952 301.248 243.94 300.22C246.08 299.447 248.363 299.146 250.63 299.34C253.33 299.603 255.932 300.489 258.23 301.93C260.883 303.565 263.125 305.79 264.78 308.43C266.695 311.378 267.649 314.848 267.51 318.36C267.395 320.255 266.807 322.091 265.8 323.7C264.745 325.369 263.339 326.789 261.68 327.86C258.148 330.125 253.989 331.214 249.8 330.97C247.606 330.853 245.445 330.383 243.4 329.58C241.272 328.749 239.358 327.451 237.8 325.78C237.026 324.902 236.373 323.923 235.86 322.87C235.371 321.796 235.035 320.658 234.86 319.49C234.528 317.098 234.736 314.662 235.47 312.36C236.999 307.561 240.314 303.533 244.73 301.11C247.019 299.853 249.566 299.137 252.175 299.017C254.784 298.898 257.386 299.378 259.78 300.42C262.261 301.466 264.433 303.128 266.09 305.25C267.749 307.43 268.786 310.018 269.09 312.74C269.436 315.502 268.989 318.304 267.8 320.82C267.189 322.083 266.387 323.244 265.42 324.26C264.437 325.263 263.327 326.133 262.12 326.85C259.685 328.192 256.999 329.017 254.231 329.275C251.463 329.533 248.671 329.218 246.03 328.35C243.429 327.552 241.038 326.186 239.03 324.35C237.039 322.514 235.677 320.096 235.14 317.44C234.577 314.83 234.948 312.105 236.19 309.74C236.82 308.575 237.685 307.554 238.73 306.74C239.759 305.964 240.907 305.359 242.13 304.95C244.532 304.18 247.051 303.842 249.57 303.95C252.023 303.968 254.464 304.304 256.83 304.95C259.17 305.566 261.331 306.724 263.14 308.33C264.873 309.947 266.055 312.067 266.52 314.39C266.979 316.636 266.845 318.963 266.13 321.14C265.422 323.241 264.226 325.143 262.64 326.69C259.628 329.636 255.639 331.372 251.43 331.57C249.46 331.674 247.489 331.389 245.63 330.73C243.845 330.09 242.24 329.03 240.95 327.64C239.729 326.314 238.805 324.742 238.24 323.03C237.683 321.425 237.435 319.728 237.51 318.03C237.653 314.886 238.907 311.895 241.05 309.59C242.882 307.586 245.2 306.088 247.78 305.24C249.946 304.535 252.24 304.316 254.5 304.6C257.623 304.988 260.591 306.184 263.11 308.07C263.764 308.551 264.383 309.079 264.96 309.65C265.35 310.04 265.54 310.25 265.54 310.25C265.54 310.25 265.32 310.06 264.93 309.69C264.336 309.139 263.708 308.624 263.05 308.15C260.526 306.32 257.576 305.167 254.48 304.8C252.039 304.518 249.566 304.824 247.267 305.694C244.969 306.564 242.912 307.972 241.27 309.8C239.183 312.055 237.967 314.98 237.84 318.05C237.772 319.715 238.02 321.378 238.57 322.95C239.128 324.611 240.031 326.134 241.22 327.42C242.473 328.767 244.03 329.796 245.76 330.42C247.574 331.051 249.493 331.322 251.41 331.22C255.518 331.018 259.407 329.313 262.34 326.43C263.872 324.932 265.027 323.092 265.71 321.06C266.395 318.955 266.519 316.708 266.07 314.54C265.62 312.309 264.484 310.274 262.82 308.72C261.061 307.174 258.965 306.058 256.7 305.46C254.373 304.823 251.973 304.487 249.56 304.46C247.1 304.367 244.643 304.706 242.3 305.46C239.91 306.192 237.887 307.804 236.64 309.97C235.456 312.231 235.102 314.836 235.64 317.33C236.158 319.881 237.471 322.202 239.39 323.96C241.336 325.758 243.659 327.098 246.19 327.88C248.761 328.726 251.478 329.033 254.172 328.782C256.867 328.531 259.48 327.727 261.85 326.42C263.02 325.733 264.093 324.893 265.04 323.92C265.969 322.945 266.741 321.832 267.33 320.62C268.481 318.192 268.915 315.486 268.58 312.82C268.294 310.192 267.302 307.691 265.71 305.58C264.108 303.529 262.008 301.922 259.61 300.91C257.287 299.895 254.761 299.427 252.228 299.541C249.695 299.656 247.223 300.35 245 301.57C240.709 303.933 237.487 307.853 236 312.52C235.287 314.753 235.079 317.117 235.39 319.44C235.57 320.568 235.907 321.666 236.39 322.7C236.885 323.711 237.51 324.652 238.25 325.5C239.758 327.118 241.611 328.375 243.67 329.18C245.67 329.971 247.783 330.437 249.93 330.56C254.029 330.811 258.103 329.761 261.57 327.56C263.173 326.579 264.522 325.236 265.511 323.638C266.499 322.04 267.098 320.232 267.26 318.36C267.4 314.925 266.474 311.53 264.61 308.64C262.992 306.033 260.795 303.833 258.19 302.21C255.933 300.782 253.377 299.896 250.72 299.62C248.487 299.408 246.234 299.688 244.12 300.44C241.159 301.441 238.576 303.326 236.72 305.84C236.241 306.493 235.826 307.189 235.48 307.92C235.14 308.38 235.01 308.63 235.01 308.63Z" fill="#FF725E"/>
<path d="M262.1 336.24C262.19 336.35 254.26 343.13 244.38 351.39C234.5 359.65 226.38 366.24 226.32 366.13C226.26 366.02 234.16 359.24 244.04 350.99C253.92 342.74 262.01 336.13 262.1 336.24Z" fill="#263238"/>
<path d="M263.83 365.24C263.36 364.964 262.914 364.646 262.5 364.29L258.98 361.55C256.03 359.21 251.98 355.95 247.52 352.33C243.06 348.71 239.05 345.41 236.16 343L232.75 340.12C232.318 339.79 231.916 339.422 231.55 339.02C232.019 339.3 232.463 339.618 232.88 339.97L236.39 342.71C239.34 345.05 243.39 348.31 247.85 351.93C252.31 355.55 256.32 358.85 259.22 361.26L262.62 364.13C263.05 364.471 263.454 364.842 263.83 365.24Z" fill="#263238"/>
<path d="M345.58 336.63C345.66 336.74 338.08 342.55 328.63 349.63C319.18 356.71 311.46 362.3 311.37 362.18C311.28 362.06 318.87 356.26 328.32 349.18C337.77 342.1 345.49 336.51 345.58 336.63Z" fill="#263238"/>
<path d="M348.52 361.23C348.45 361.35 340.39 356.36 330.52 350.07C320.65 343.78 312.74 338.6 312.81 338.47C312.88 338.34 320.94 343.35 330.81 349.63C340.68 355.91 348.64 361.11 348.52 361.23Z" fill="#263238"/>
<path d="M263.4 409.8C263.29 409.7 271.17 401.44 280.99 391.37C290.81 381.3 298.86 373.19 298.99 373.29C299.12 373.39 291.22 381.65 281.4 391.73C271.58 401.81 263.5 409.9 263.4 409.8Z" fill="#FF725E"/>
<path d="M296.71 409.79C296.71 409.79 296.58 409.68 296.38 409.44L295.54 408.44C294.76 407.44 293.72 406.15 292.45 404.57C289.84 401.31 286.14 396.88 281.85 392.17C277.56 387.46 273.49 383.37 270.49 380.47L266.93 376.97L265.93 376.03C265.815 375.925 265.711 375.808 265.62 375.68C265.62 375.68 265.77 375.76 266 375.95L267 376.82C267.89 377.58 269.15 378.71 270.69 380.13C273.75 382.97 277.87 387.03 282.18 391.75C286.49 396.47 290.18 400.95 292.68 404.27C293.96 405.93 294.97 407.27 295.68 408.27L296.45 409.37C296.554 409.499 296.641 409.64 296.71 409.79Z" fill="#FF725E"/>
<path d="M214.85 367.73C214.85 367.73 215.17 392.3 208.97 407.01L171.18 400.57C171.18 400.57 182.56 377.29 179.46 364.35L214.85 367.73Z" fill="#EBEBEB"/>
<path d="M214.84 366.81C214.84 366.81 210.1 396.97 207.2 405.97L169.64 398.51C169.64 398.51 177.37 369.35 177.27 361.23L214.84 366.81Z" fill="#FF725E"/>
<path d="M181.08 374.75C181.08 374.89 186.66 376.19 193.61 377.65C200.56 379.11 206.21 380.18 206.24 380.05C206.27 379.92 200.66 378.61 193.71 377.15C186.76 375.69 181.11 374.61 181.08 374.75Z" fill="white"/>
<path d="M180.12 381.14C180.12 381.28 185.7 382.57 192.65 384.04C199.6 385.51 205.25 386.57 205.28 386.44C205.31 386.31 199.7 385 192.75 383.54C185.8 382.08 180.15 380.97 180.12 381.14Z" fill="white"/>
<path d="M185.64 388.37C186.281 388.649 186.952 388.85 187.64 388.97C188.93 389.28 190.72 389.69 192.69 390.11C194.66 390.53 196.47 390.87 197.78 391.11C198.48 391.286 199.199 391.373 199.92 391.37C199.255 391.09 198.561 390.885 197.85 390.76C196.57 390.44 194.78 390.03 192.8 389.62C190.82 389.21 189.02 388.85 187.72 388.62C187.039 388.453 186.341 388.369 185.64 388.37Z" fill="white"/>
<path d="M393.64 298.74C393.64 298.74 397.51 322.68 393.59 337.95L355.75 337.14C355.75 337.14 363.49 312.76 358.58 300.57L393.64 298.74Z" fill="#EBEBEB"/>
<path d="M393.47 297.84C393.47 297.84 393.22 327.95 391.69 337.14L353.92 335.35C353.92 335.35 357.23 305.75 355.92 297.84H393.47Z" fill="#455A64"/>
<path d="M361.28 311.24C361.28 311.38 366.96 311.5 373.97 311.51C380.98 311.52 386.67 311.42 386.67 311.28C386.67 311.14 380.99 311.02 373.97 311.01C366.95 311 361.28 311.1 361.28 311.24Z" fill="white"/>
<path d="M361.64 317.61C361.64 317.75 367.32 317.87 374.33 317.88C381.34 317.89 387.03 317.79 387.03 317.65C387.03 317.51 381.35 317.39 374.33 317.38C367.31 317.37 361.64 317.47 361.64 317.61Z" fill="white"/>
<path d="M368.41 323.48C369.106 323.629 369.818 323.693 370.53 323.67C371.84 323.67 373.65 323.74 375.65 323.75C377.65 323.76 379.45 323.75 380.76 323.68C381.471 323.709 382.183 323.652 382.88 323.51C382.184 323.362 381.472 323.301 380.76 323.33C379.45 323.28 377.65 323.25 375.65 323.24C373.65 323.23 371.84 323.24 370.53 323.31C369.819 323.282 369.107 323.339 368.41 323.48Z" fill="white"/>
<path d="M401.64 229.71C394.58 229.71 387.47 225.28 383.73 218.31C380.094 211.37 378.968 203.386 380.54 195.71C382.61 185.71 389.23 177.51 397.41 174.89C404.36 172.66 416.78 173.89 422.64 183.7C425.432 188.497 426.818 193.983 426.64 199.53C426.614 199.924 426.51 200.309 426.335 200.663C426.16 201.017 425.917 201.333 425.62 201.593C425.323 201.853 424.977 202.052 424.603 202.178C424.229 202.305 423.834 202.357 423.44 202.33C422.644 202.277 421.902 201.91 421.377 201.31C420.852 200.71 420.587 199.926 420.64 199.13C420.694 194.799 419.582 190.533 417.42 186.78C412.9 179.23 402.99 179.38 399.17 180.6C392.17 182.84 387.69 190.41 386.34 196.92C385.044 203.223 385.966 209.78 388.95 215.48C391.9 220.98 397.87 224.4 403.16 223.59C403.941 223.482 404.733 223.685 405.366 224.155C405.998 224.626 406.419 225.327 406.539 226.107C406.659 226.886 406.467 227.681 406.005 228.32C405.543 228.959 404.848 229.39 404.07 229.52C403.266 229.645 402.454 229.708 401.64 229.71Z" fill="#263238"/>
<path d="M207.96 229.71C200.89 229.71 193.79 225.28 190.05 218.31C186.411 211.371 185.281 203.387 186.85 195.71C188.6 187.27 194.52 177.55 203.85 174.87C208.349 173.652 213.118 173.893 217.47 175.56L215.31 181.16C212.178 179.97 208.753 179.785 205.51 180.63C198.63 182.63 194.15 190.25 192.77 196.92C191.474 203.223 192.396 209.78 195.38 215.48C198.33 220.99 204.31 224.4 209.59 223.59L210.5 229.52C209.66 229.65 208.81 229.714 207.96 229.71Z" fill="#263238"/>
<path d="M399.17 199.68L396.41 214.79H437.02L440.63 199.83L399.17 199.68Z" fill="#FF725E"/>
<path d="M218.25 227.32C218.252 228.599 217.875 229.849 217.166 230.913C216.456 231.977 215.448 232.806 214.267 233.296C213.086 233.787 211.786 233.915 210.532 233.666C209.278 233.418 208.126 232.802 207.222 231.898C206.318 230.994 205.703 229.842 205.454 228.588C205.205 227.334 205.334 226.034 205.824 224.853C206.314 223.673 207.143 222.664 208.207 221.955C209.271 221.246 210.522 220.868 211.8 220.87C213.51 220.873 215.149 221.553 216.358 222.762C217.567 223.971 218.247 225.61 218.25 227.32Z" fill="#263238"/>
<path d="M411.76 227.32C411.762 228.599 411.385 229.849 410.676 230.913C409.966 231.977 408.958 232.806 407.777 233.296C406.596 233.787 405.296 233.915 404.042 233.666C402.788 233.418 401.636 232.802 400.732 231.898C399.828 230.994 399.213 229.842 398.964 228.588C398.715 227.334 398.844 226.034 399.334 224.853C399.824 223.673 400.653 222.664 401.717 221.955C402.781 221.246 404.032 220.868 405.31 220.87C407.02 220.873 408.659 221.553 409.868 222.762C411.077 223.971 411.757 225.61 411.76 227.32Z" fill="#263238"/>
<path d="M305.19 102.29L294.57 142.57L257.91 146.51V153.01L309.42 154.82L319.1 109.63L305.19 102.29Z" fill="#FFBE9D"/>
<path d="M320.64 155.89C320.64 155.89 263.36 153.16 247.05 165.89C230.74 178.62 238.64 199.52 238.64 199.52L330.82 199.28L338.96 152.55L320.64 155.89Z" fill="#263238"/>
<path d="M330.39 186.72C330.112 186.727 329.834 186.707 329.56 186.66C329.02 186.6 328.23 186.52 327.21 186.39C325.21 186.14 322.21 185.72 318.61 185.11C309.158 183.503 299.809 181.342 290.61 178.64C285.23 177.05 280.14 175.45 275.44 174.28C271.291 173.207 267.048 172.537 262.77 172.28C259.884 172.119 256.988 172.286 254.14 172.78C253.14 172.9 252.37 173.16 251.83 173.25C251.563 173.316 251.293 173.366 251.02 173.4C251.274 173.291 251.539 173.207 251.81 173.15C252.562 172.916 253.326 172.726 254.1 172.58C256.955 172.004 259.87 171.779 262.78 171.91C267.12 172.117 271.428 172.757 275.64 173.82C280.37 174.96 285.47 176.56 290.83 178.15C299.979 180.829 309.262 183.029 318.64 184.74C322.25 185.4 325.18 185.87 327.21 186.19L329.55 186.56C329.834 186.59 330.115 186.644 330.39 186.72Z" fill="#455A64"/>
<path d="M277.15 173.97C275.559 172.658 273.863 171.477 272.08 170.44C270.211 169.566 268.275 168.844 266.29 168.28C266.906 168.227 267.526 168.288 268.12 168.46C269.582 168.775 270.995 169.286 272.32 169.98C273.643 170.678 274.867 171.549 275.96 172.57C276.44 172.959 276.843 173.434 277.15 173.97Z" fill="#455A64"/>
<path d="M326.71 280.4L327.48 304.47L322.64 323.69C322.561 324.019 322.552 324.361 322.611 324.694C322.671 325.027 322.798 325.345 322.986 325.626C323.174 325.908 323.417 326.148 323.702 326.331C323.987 326.514 324.306 326.636 324.64 326.69C325.027 326.761 325.424 326.738 325.8 326.623C326.176 326.508 326.519 326.305 326.8 326.03C330.44 322.47 343.8 309.31 343.63 307.56C343.45 305.56 344.5 282.1 344.5 282.1L326.71 280.4Z" fill="#FF725E"/>
<g opacity="0.6">
<path opacity="0.6" d="M324.55 326.73L343.55 305.97V306.97C343.562 307.854 343.256 308.712 342.69 309.39C341.18 311.2 336.89 316.11 326.8 326.05C326.512 326.336 326.157 326.545 325.768 326.66C325.379 326.776 324.967 326.793 324.57 326.71L324.55 326.73Z" fill="white"/>
</g>
<g opacity="0.6">
<path opacity="0.6" d="M338.51 298.24C338.205 298.463 337.996 298.793 337.923 299.164C337.851 299.535 337.921 299.919 338.12 300.24C338.331 300.54 338.647 300.748 339.006 300.822C339.364 300.896 339.738 300.831 340.05 300.64C340.364 300.408 340.579 300.066 340.653 299.683C340.727 299.3 340.654 298.903 340.45 298.57C340.201 298.277 339.848 298.092 339.465 298.055C339.083 298.018 338.701 298.131 338.4 298.37" fill="white"/>
</g>
<path d="M329.96 316.15C329.82 316.22 329.26 314.97 327.83 314.3C326.945 313.953 326.001 313.783 325.05 313.8C325.05 313.74 325.33 313.55 325.89 313.46C326.632 313.37 327.384 313.495 328.058 313.819C328.731 314.143 329.298 314.654 329.69 315.29C329.97 315.78 330.01 316.13 329.96 316.15Z" fill="#263238"/>
<path d="M328.27 319.4C327.578 319.023 326.863 318.689 326.13 318.4C325.349 318.263 324.561 318.169 323.77 318.12C324.138 317.884 324.557 317.739 324.992 317.699C325.427 317.659 325.865 317.725 326.27 317.89C327.69 318.27 328.39 319.33 328.27 319.4Z" fill="#263238"/>
<path d="M333.11 311.97C332.088 311.297 331.019 310.698 329.91 310.18C328.739 309.822 327.542 309.555 326.33 309.38C327.59 309.117 328.898 309.22 330.1 309.68C331.303 310.139 332.347 310.934 333.11 311.97Z" fill="#263238"/>
<path d="M333.49 304.65C333.43 304.8 332.09 304.25 330.36 304.21C328.63 304.17 327.26 304.59 327.2 304.44C328.17 303.905 329.267 303.643 330.374 303.68C331.481 303.717 332.558 304.052 333.49 304.65Z" fill="#263238"/>
<path d="M333.44 297.58C332.387 297.249 331.293 297.064 330.19 297.03C329.096 297.157 328.026 297.437 327.01 297.86C327.01 297.81 327.23 297.5 327.78 297.18C328.516 296.764 329.34 296.529 330.185 296.492C331.029 296.456 331.871 296.619 332.64 296.97C333.19 297.24 333.48 297.52 333.44 297.58Z" fill="#263238"/>
<path d="M330.22 295.68C330.158 295.38 330.158 295.07 330.22 294.77C330.295 293.934 330.536 293.121 330.93 292.38C331.164 291.809 331.583 291.334 332.12 291.03C332.306 290.947 332.513 290.922 332.713 290.96C332.913 290.998 333.097 291.095 333.24 291.24C333.498 291.54 333.636 291.925 333.63 292.32C333.583 293.126 333.258 293.891 332.711 294.485C332.165 295.079 331.429 295.466 330.63 295.58C329.832 295.669 329.026 295.519 328.314 295.148C327.602 294.778 327.016 294.204 326.63 293.5C326.533 293.322 326.475 293.126 326.462 292.924C326.448 292.722 326.478 292.519 326.55 292.33C326.644 292.151 326.789 292.005 326.968 291.91C327.146 291.815 327.349 291.777 327.55 291.8C328.145 291.927 328.696 292.206 329.15 292.61C329.806 293.13 330.368 293.759 330.81 294.47C330.987 294.721 331.115 295.002 331.19 295.3C330.554 294.397 329.79 293.591 328.92 292.91C328.514 292.577 328.034 292.347 327.52 292.24C327.409 292.221 327.295 292.238 327.194 292.289C327.094 292.339 327.012 292.42 326.96 292.52C326.925 292.649 326.915 292.783 326.932 292.915C326.949 293.047 326.993 293.175 327.06 293.29C327.411 293.886 327.925 294.368 328.542 294.68C329.159 294.992 329.852 295.121 330.54 295.05C331.222 294.963 331.853 294.644 332.329 294.147C332.804 293.65 333.094 293.005 333.15 292.32C333.163 292.046 333.078 291.777 332.91 291.56C332.834 291.475 332.733 291.416 332.622 291.392C332.51 291.369 332.394 291.382 332.29 291.43C331.851 291.698 331.503 292.092 331.29 292.56C330.758 293.531 330.396 294.587 330.22 295.68Z" fill="#263238"/>
<path d="M338.91 152.55C338.91 152.55 314.14 199.38 313.8 207.55C313.46 215.72 313.8 291.03 313.8 291.03H352.14C353.14 291.03 358.89 257.1 357.72 249.29C356.55 241.48 352.42 199.5 352.42 199.5H374.48C374.48 199.5 380.53 193.03 380.31 184.82C380.18 180.29 377.22 171.03 374.31 166.12C372.42 162.97 360.31 146.48 360.31 146.48L338.91 152.55Z" fill="#263238"/>
<path d="M337.25 155.72C337.223 155.814 337.186 155.905 337.14 155.99C337.05 156.19 336.93 156.44 336.78 156.75L335.34 159.67C334.69 160.94 333.92 162.48 333.02 164.27L331.58 167.14L330.07 170.41L322.64 186.5C321.23 189.5 319.75 192.71 318.21 196L315.88 201C315.127 202.729 314.557 204.533 314.18 206.38C313.8 208.233 313.603 210.119 313.59 212.01C313.53 213.88 313.49 215.73 313.46 217.54C313.46 221.18 313.39 224.68 313.4 228.02C313.4 234.7 313.48 240.72 313.55 245.77C313.62 250.82 313.68 254.87 313.73 257.77C313.73 259.15 313.73 260.24 313.73 261.02C313.73 261.37 313.73 261.65 313.73 261.87C313.73 262.09 313.73 262.16 313.73 262.16C313.713 262.064 313.713 261.966 313.73 261.87C313.73 261.65 313.73 261.37 313.73 261.03C313.73 260.24 313.65 259.16 313.59 257.77C313.49 254.95 313.36 250.86 313.25 245.77C313.14 240.68 313.02 234.71 312.99 228.02C312.99 224.68 312.99 221.17 312.99 217.54C312.99 215.72 313.05 213.87 313.12 211.99C313.13 210.069 313.327 208.153 313.71 206.27C314.097 204.388 314.68 202.551 315.45 200.79L317.79 195.79L322.25 186.31L329.83 170.26L331.37 167C331.9 166 332.37 165 332.85 164.15L335.24 159.59C335.89 158.36 336.41 157.4 336.77 156.71C336.94 156.41 337.08 156.17 337.18 155.97C337.28 155.77 337.24 155.71 337.25 155.72Z" fill="#455A64"/>
<path d="M329.23 171.67C328.435 169.767 327.767 167.812 327.23 165.82C326.528 163.881 325.957 161.896 325.52 159.88C326.452 161.729 327.19 163.669 327.72 165.67C328.428 167.613 328.934 169.624 329.23 171.67Z" fill="#455A64"/>
<path d="M357.8 247.82C357.736 247.65 357.696 247.472 357.68 247.29C357.633 246.884 357.563 246.374 357.47 245.76C357.29 244.35 357.06 242.43 356.77 240.1C356.22 235.26 355.48 228.69 354.66 221.43C353.84 214.17 353.17 207.52 352.76 202.73C352.57 200.39 352.41 198.47 352.29 197.06C352.29 196.43 352.21 195.92 352.18 195.51C352.167 195.33 352.167 195.15 352.18 194.97C352.243 195.14 352.28 195.319 352.29 195.5C352.34 195.91 352.41 196.42 352.49 197.04C352.65 198.45 352.87 200.36 353.13 202.7C353.66 207.54 354.38 214.12 355.13 221.38C355.88 228.64 356.59 235.21 357.13 240.06C357.35 242.4 357.54 244.32 357.67 245.73C357.72 246.35 357.76 246.87 357.79 247.28C357.809 247.46 357.812 247.64 357.8 247.82Z" fill="#455A64"/>
<path d="M348.06 27.1302C347.47 23.1302 350.9 19.2802 354.86 18.8102C358.82 18.3402 362.81 20.8102 364.63 24.4202C365.477 26.2357 365.941 28.2063 365.992 30.209C366.044 32.2117 365.682 34.2035 364.93 36.0602C363.93 38.5902 362.08 41.1502 359.39 41.3502C356.7 41.5502 354.64 39.5002 352.86 37.6102" fill="#263238"/>
<path d="M319.91 46.9703C311.91 29.4403 330.91 20.6303 341.24 23.5503C350.96 26.3003 355.11 31.1403 356.71 37.6403C358.463 44.1615 358.113 51.0695 355.71 57.3803C354.45 60.4403 352.19 63.5403 348.91 63.9203" fill="#263238"/>
<path d="M347.44 33.2802C348.263 33.3655 349.023 33.7576 349.57 34.3784C350.117 34.9992 350.41 35.8032 350.39 36.6302L348.52 81.2502C348.45 86.5202 340.76 89.5002 335.11 89.3802C329.42 89.2602 329.23 86.4602 329.11 81.4502C328.98 73.0802 328.98 69.9302 328.98 69.9802C328.98 70.0302 321.78 68.7802 320.29 59.3902C319.54 54.7202 319.78 47.0602 320.17 40.8002C320.53 35.1702 324.26 28.2502 329.88 28.8002L347.44 33.2802Z" fill="#FFBE9D"/>
<path d="M323.85 46.1403C323.845 46.4552 323.963 46.7596 324.18 46.9878C324.397 47.216 324.695 47.3498 325.01 47.3603C325.164 47.3725 325.318 47.3538 325.464 47.3052C325.61 47.2567 325.745 47.1793 325.861 47.0776C325.976 46.976 326.07 46.8521 326.137 46.7135C326.204 46.5748 326.242 46.4241 326.25 46.2703C326.253 45.9561 326.133 45.6531 325.917 45.4255C325.701 45.1978 325.404 45.0632 325.09 45.0503C324.937 45.038 324.782 45.0567 324.636 45.1053C324.49 45.1538 324.355 45.2312 324.239 45.3329C324.124 45.4345 324.03 45.5584 323.963 45.6971C323.896 45.8358 323.858 45.9865 323.85 46.1403Z" fill="#263238"/>
<path d="M321.86 44.7903C322.01 44.9403 322.93 44.2703 324.22 44.2703C325.51 44.2703 326.47 44.9203 326.61 44.7603C326.75 44.6003 326.53 44.4103 326.11 44.1103C325.549 43.7226 324.882 43.5167 324.2 43.5203C323.527 43.5138 322.87 43.728 322.33 44.1303C321.93 44.4303 321.79 44.7203 321.86 44.7903Z" fill="#263238"/>
<path d="M336.52 46.1402C336.517 46.4479 336.631 46.7452 336.839 46.9719C337.047 47.1985 337.333 47.3374 337.64 47.3602C337.794 47.3725 337.948 47.3538 338.094 47.3052C338.24 47.2567 338.375 47.1793 338.491 47.0776C338.606 46.9759 338.7 46.8521 338.767 46.7134C338.834 46.5747 338.873 46.424 338.88 46.2702C338.883 45.9561 338.764 45.6531 338.547 45.4254C338.331 45.1977 338.034 45.0632 337.72 45.0502C337.417 45.0366 337.12 45.1436 336.895 45.3478C336.671 45.552 336.536 45.8369 336.52 46.1402Z" fill="#263238"/>
<path d="M334.64 45.0302C334.79 45.1802 335.7 44.5102 336.99 44.5102C338.28 44.5102 339.24 45.1602 339.38 45.0102C339.52 44.8602 339.3 44.6502 338.88 44.3502C338.32 43.9608 337.652 43.7547 336.97 43.7602C336.298 43.7601 335.643 43.9738 335.1 44.3702C334.64 44.6702 334.53 44.9702 334.64 45.0302Z" fill="#263238"/>
<path d="M329.9 54.6402C329.218 54.4299 328.513 54.3024 327.8 54.2602C327.47 54.2602 327.15 54.1602 327.1 53.9402C327.069 53.5922 327.146 53.243 327.32 52.9402C327.63 52.1402 327.95 51.3002 328.32 50.4202C329.227 48.2852 329.962 46.0816 330.52 43.8302C329.437 45.8855 328.524 48.026 327.79 50.2302L326.85 52.7702C326.643 53.1704 326.583 53.6303 326.68 54.0702C326.73 54.1864 326.805 54.29 326.9 54.3731C326.995 54.4562 327.108 54.5167 327.23 54.5502C327.413 54.5986 327.601 54.6254 327.79 54.6302C328.49 54.7207 329.199 54.7241 329.9 54.6402Z" fill="#263238"/>
<path d="M329.01 69.9702C333.45 70.0511 337.824 68.8909 341.64 66.6202C341.64 66.6202 338.58 73.0802 329.18 72.2002L329.01 69.9702Z" fill="#EB996E"/>
<path d="M330.45 57.7602C330.697 57.452 331.019 57.2116 331.384 57.0612C331.75 56.9108 332.147 56.8554 332.54 56.9002C332.828 56.9243 333.107 57.0067 333.362 57.1426C333.616 57.2784 333.84 57.4648 334.02 57.6902C334.192 57.9059 334.294 58.1692 334.312 58.4445C334.33 58.7199 334.263 58.9941 334.12 59.2302C333.912 59.464 333.639 59.63 333.336 59.7067C333.033 59.7834 332.714 59.7672 332.42 59.6602C331.804 59.4435 331.239 59.1032 330.76 58.6602C330.615 58.5569 330.49 58.4281 330.39 58.2802C330.344 58.2088 330.319 58.1254 330.319 58.0402C330.319 57.955 330.344 57.8716 330.39 57.8002" fill="#EB996E"/>
<path d="M333.72 55.5402C333.51 55.5402 333.5 56.9302 332.3 57.9302C331.1 58.9302 329.6 58.7702 329.59 58.9302C329.58 59.0902 329.92 59.2002 330.59 59.2202C331.416 59.2297 332.219 58.9503 332.86 58.4302C333.469 57.9291 333.863 57.2132 333.96 56.4302C333.97 55.8802 333.81 55.5302 333.72 55.5402Z" fill="#263238"/>
<path d="M334.02 42.7602C334.15 43.1102 335.45 42.9402 336.97 43.1302C338.49 43.3202 339.72 43.7202 339.92 43.4102C340.01 43.2602 339.79 42.9302 339.3 42.5802C338.641 42.1564 337.89 41.8959 337.11 41.8202C336.333 41.7232 335.544 41.8158 334.81 42.0902C334.25 42.3102 333.97 42.5902 334.02 42.7602Z" fill="#263238"/>
<path d="M322.34 41.0302C322.57 41.3302 323.46 41.0302 324.54 41.0302C325.62 41.0302 326.54 41.2302 326.73 40.9202C326.82 40.7702 326.73 40.4702 326.28 40.2002C325.753 39.8538 325.13 39.6824 324.5 39.7102C323.87 39.7232 323.259 39.9292 322.75 40.3002C322.37 40.5902 322.24 40.8902 322.34 41.0302Z" fill="#263238"/>
<path d="M334.57 25.7203C331.383 25.8829 328.287 26.8458 325.57 28.5203C324.047 29.3099 322.694 30.3919 321.589 31.7045C320.484 33.0171 319.648 34.5346 319.13 36.1703C318.998 36.5105 318.938 36.874 318.951 37.2385C318.965 37.6031 319.053 37.961 319.21 38.2903C319.507 38.6669 319.927 38.928 320.396 39.0284C320.865 39.1288 321.355 39.0623 321.78 38.8403C322.628 38.3794 323.349 37.7165 323.88 36.9103C324.091 37.7919 324.596 38.5756 325.311 39.1328C326.026 39.6901 326.909 39.9879 327.816 39.9774C328.723 39.9669 329.599 39.6488 330.301 39.0752C331.003 38.5016 331.489 37.7065 331.68 36.8203C331.752 37.7212 332.168 38.5597 332.842 39.1614C333.517 39.7631 334.397 40.0815 335.3 40.0503C336.201 39.9723 337.06 39.6326 337.771 39.0729C338.481 38.5133 339.013 37.7581 339.3 36.9003C339.521 38.5263 340.083 40.0873 340.95 41.4803C341.394 42.1717 342.04 42.7097 342.8 43.021C343.561 43.3323 344.399 43.4019 345.2 43.2203C344.864 44.6028 344.885 46.048 345.26 47.4203C345.76 48.7403 347.75 71.3303 349.09 70.8703C350.43 70.4103 350.38 47.3703 350.68 46.0303C351.345 43.4599 351.681 40.8154 351.68 38.1603C351.769 35.4251 350.883 32.7472 349.179 30.6056C347.475 28.4639 345.065 26.9981 342.38 26.4703C339.699 25.8553 336.948 25.6031 334.2 25.7203" fill="#263238"/>
<path d="M353.39 66.8603C353.39 66.8603 353.3 66.9202 353.1 66.9902C352.819 67.0931 352.527 67.1636 352.23 67.2003C350.839 67.3768 349.427 67.1548 348.158 66.5599C346.888 65.9651 345.814 65.0219 345.06 63.8403C344.038 62.06 343.607 60.0011 343.83 57.9603C343.98 55.8103 344.48 53.8503 344.71 52.0503C344.936 50.4523 345.077 48.8433 345.13 47.2303C345.13 45.8503 345.13 44.7403 345.13 43.9603C345.087 43.5614 345.087 43.1591 345.13 42.7603C345.249 43.1536 345.319 43.5599 345.34 43.9703C345.449 45.0635 345.503 46.1616 345.5 47.2603C345.498 48.8885 345.395 50.515 345.19 52.1303C344.97 53.9703 344.5 55.9403 344.35 58.0103C344.136 59.9478 344.527 61.904 345.47 63.6103C346.292 64.9687 347.556 66.0032 349.05 66.5403C350.054 66.9231 351.128 67.0868 352.2 67.0203C352.97 66.9703 353.38 66.8103 353.39 66.8603Z" fill="#263238"/>
<path d="M331.26 24.5103C331.624 25.195 331.793 25.9661 331.75 26.7402C331.785 28.6352 331.068 30.4668 329.756 31.8347C328.445 33.2027 326.645 33.9956 324.75 34.0403C323.981 34.114 323.206 33.9757 322.51 33.6403C322.51 33.5503 323.37 33.7903 324.73 33.6403C326.507 33.5195 328.176 32.7424 329.413 31.4598C330.649 30.1773 331.365 28.4809 331.42 26.7003C331.45 25.3703 331.17 24.5303 331.26 24.5103Z" fill="#455A64"/>
<path d="M332.64 35.5702C332.69 35.5702 332.57 36.2102 331.85 36.9102C331.372 37.34 330.812 37.6688 330.204 37.8767C329.595 38.0846 328.951 38.1675 328.31 38.1202C327.053 38.008 325.842 37.5928 324.78 36.9102C323.97 36.4002 323.53 36.0102 323.57 35.9102C324.054 36.0626 324.518 36.2742 324.95 36.5402C326.005 37.0885 327.156 37.4281 328.34 37.5402C329.515 37.6094 330.675 37.2546 331.61 36.5402C332.34 36.0802 332.58 35.5302 332.64 35.5702Z" fill="#455A64"/>
<path d="M355.29 32.7002C355.357 33.5611 355.296 34.427 355.11 35.2702C354.827 37.3589 354.037 39.3467 352.81 41.0602C352.169 41.9099 351.361 42.6197 350.436 43.1459C349.511 43.6721 348.488 44.0036 347.43 44.1202C346.787 44.1781 346.139 44.1136 345.52 43.9302C345.09 43.8002 344.88 43.6702 344.89 43.6402C345.715 43.7878 346.555 43.8247 347.39 43.7502C349.379 43.4273 351.169 42.3535 352.39 40.7502C353.561 39.0934 354.363 37.204 354.74 35.2102C354.871 34.363 355.055 33.5247 355.29 32.7002Z" fill="#455A64"/>
<path d="M357.01 37.2502C357.102 37.5073 357.152 37.7773 357.16 38.0502C357.227 38.7782 357.244 39.51 357.21 40.2402C357.157 42.7009 356.277 45.072 354.71 46.9702C353.826 48.0139 352.675 48.7984 351.38 49.2402C350.319 49.5876 349.186 49.6565 348.09 49.4402C347.354 49.2997 346.656 49.0068 346.04 48.5802C345.62 48.2702 345.44 48.0402 345.46 48.0202C346.281 48.5422 347.194 48.9021 348.15 49.0802C349.182 49.2285 350.234 49.1291 351.22 48.7902C352.421 48.347 353.488 47.6033 354.32 46.6302C355.805 44.8023 356.689 42.5599 356.85 40.2102C357.01 38.4002 356.92 37.2602 357.01 37.2502Z" fill="#455A64"/>
<path d="M225.2 158.12L207.05 199.63H232.04L249.84 157.79L225.2 158.12Z" fill="#455A64"/>
<path d="M212 113.97L232.47 154.23H297.03L294.42 148.97L275.72 148.41L260.47 114.47C260.007 113.436 259.254 112.558 258.303 111.943C257.352 111.327 256.243 111 255.11 111H213.82C213.466 110.987 213.115 111.069 212.802 111.237C212.49 111.404 212.228 111.652 212.043 111.954C211.858 112.256 211.756 112.602 211.749 112.956C211.741 113.311 211.828 113.66 212 113.97Z" fill="#E0E0E0"/>
<path d="M244.33 132.02C244.33 132.509 244.185 132.986 243.914 133.393C243.642 133.799 243.257 134.115 242.805 134.302C242.354 134.489 241.857 134.538 241.378 134.443C240.899 134.348 240.459 134.112 240.113 133.767C239.768 133.421 239.533 132.981 239.437 132.502C239.342 132.023 239.391 131.526 239.578 131.075C239.765 130.624 240.082 130.238 240.488 129.967C240.894 129.695 241.372 129.55 241.86 129.55C242.514 129.553 243.141 129.814 243.604 130.277C244.066 130.739 244.327 131.366 244.33 132.02Z" fill="#263238"/>
<path d="M303.91 154.31H224.99V158.16H303.91V154.31Z" fill="#455A64"/>
<path d="M279.6 156.24L303.61 199.67H315.09L317.59 194.7L319.89 189.47L303.91 158.16L279.6 156.24Z" fill="#455A64"/>
<path d="M321.32 81.7803C321.32 81.7803 307.38 86.6903 304.38 102.29L319.1 109.63L321.32 81.7803Z" fill="#FF725E"/>
<path d="M321.32 81.7803C321.32 81.7803 311.57 103.64 311.94 115.58C312.07 119.73 314.79 130.58 314.79 130.58L319.86 157.44C319.86 157.44 358.67 152.19 359.53 152.19C360.39 152.19 358.23 130.14 358.23 130.14L364.56 87.7703C364.56 87.7703 361.66 82.0003 348.56 80.0003C340.71 78.7703 321.32 81.7803 321.32 81.7803Z" fill="#FF725E"/>
<path d="M317.64 94.4702C317.73 94.5202 316.71 96.1502 315.48 98.9702C314.767 100.621 314.166 102.318 313.68 104.05C313.096 106.172 312.672 108.335 312.41 110.52C312.18 112.709 312.11 114.911 312.2 117.11C312.291 118.906 312.501 120.693 312.83 122.46C313.39 125.46 314.03 127.3 313.93 127.33C313.72 126.932 313.553 126.513 313.43 126.08C313.252 125.585 313.098 125.081 312.97 124.57C312.81 123.97 312.6 123.3 312.46 122.57C312.085 120.79 311.838 118.986 311.72 117.17C311.6 114.943 311.657 112.709 311.89 110.49C312.156 108.275 312.601 106.084 313.22 103.94C313.734 102.197 314.379 100.496 315.15 98.8502C315.431 98.2111 315.745 97.5869 316.09 96.9802C316.329 96.51 316.593 96.0527 316.88 95.6102C317.094 95.2054 317.349 94.8235 317.64 94.4702Z" fill="#263238"/>
<path d="M326.04 81.5803L326.6 75.5803C326.661 74.9567 326.95 74.3776 327.411 73.9534C327.872 73.5292 328.474 73.2895 329.1 73.2803L348.25 72.9903C348.831 72.9834 349.393 73.1975 349.822 73.5893C350.25 73.9811 350.514 74.5212 350.56 75.1003L351.05 81.5703C349.447 84.9682 346.735 87.7191 343.36 89.3703C337.73 92.1003 328.98 92.1903 328.98 92.1903L326.04 81.5803Z" fill="#FF725E"/>
<path d="M331.05 73.3303C331.11 73.3303 330.83 73.7203 330.71 74.3303C330.602 75.2136 330.602 76.1069 330.71 76.9903C330.878 78.2782 330.878 79.5824 330.71 80.8703C330.366 79.6158 330.191 78.321 330.19 77.0203C330.056 76.0942 330.097 75.1513 330.31 74.2403C330.64 73.5503 331.02 73.2803 331.05 73.3303Z" fill="#263238"/>
<path d="M335.64 80.7503C335.306 79.5255 335.144 78.2599 335.16 76.9903C335.086 76.0918 335.086 75.1888 335.16 74.2903C335.26 73.5703 335.55 73.2003 335.61 73.2903C335.67 73.3803 335.52 73.7103 335.53 74.3703C335.54 75.0303 335.64 75.9703 335.64 76.9703C335.808 78.2247 335.808 79.4959 335.64 80.7503Z" fill="#263238"/>
<path d="M341.39 80.5902C340.976 79.4233 340.724 78.2054 340.64 76.9702C340.393 75.7467 340.316 74.4949 340.41 73.2502C340.828 74.4263 341.08 75.6547 341.16 76.9002C341.403 78.1142 341.481 79.3555 341.39 80.5902Z" fill="#263238"/>
<path d="M346.35 80.9702C345.893 79.6851 345.65 78.3339 345.63 76.9702C345.438 75.6107 345.472 74.2288 345.73 72.8802C345.992 74.198 346.132 75.5369 346.15 76.8802C346.344 78.2343 346.411 79.6037 346.35 80.9702Z" fill="#263238"/>
<g opacity="0.3">
<path opacity="0.3" d="M350.15 103.88C349.38 110.61 349.89 122.21 352.27 128.56L363.45 110.09L350.15 103.88Z" fill="black"/>
</g>
<path d="M363.52 86.3802L363.58 86.4402C366.75 89.7681 369.07 93.8129 370.34 98.2302L372.4 107.62L350.4 111.02C349.189 107.037 348.902 102.831 349.56 98.7202C350.64 91.6402 363.52 86.3802 363.52 86.3802Z" fill="#FF725E"/>
<path d="M372.4 107.62C372.257 107.671 372.11 107.707 371.96 107.73L370.7 107.96L365.99 108.73L350.05 111.15H349.77V110.86C349.72 109.53 349.68 108.15 349.65 106.73C349.6 103.04 349.65 99.5102 349.87 96.3002C350.023 93.4237 350.903 90.633 352.43 88.1902C353.456 86.5472 354.862 85.1753 356.53 84.1902C356.98 83.9229 357.456 83.7017 357.95 83.5302C358.115 83.4545 358.29 83.4039 358.47 83.3802C358.47 83.3802 357.77 83.6502 356.63 84.3802C355.043 85.3969 353.712 86.7657 352.74 88.3802C351.292 90.8077 350.467 93.5563 350.34 96.3802C350.11 99.5602 350.12 103.08 350.18 106.77C350.18 108.17 350.25 109.56 350.28 110.88L349.99 110.63L365.99 108.38L370.72 107.77L372 107.62C372.133 107.603 372.267 107.603 372.4 107.62Z" fill="#263238"/>
<path d="M325.93 93.8302C324.81 93.1781 323.781 92.3813 322.87 91.4602C321.843 90.6674 320.928 89.7389 320.15 88.7002C322.297 90.1447 324.241 91.87 325.93 93.8302Z" fill="#FAFAFA"/>
<path d="M322.96 105.4C322.176 106.206 321.267 106.881 320.27 107.4C319.355 108.064 318.343 108.583 317.27 108.94C318.967 107.482 320.88 106.294 322.94 105.42L322.96 105.4Z" fill="#FAFAFA"/>
<path d="M335.23 108.25C335.052 106.829 335.052 105.391 335.23 103.97C335.237 102.541 335.412 101.118 335.75 99.7302C335.925 101.148 335.925 102.582 335.75 104C335.746 105.433 335.572 106.859 335.23 108.25Z" fill="#FAFAFA"/>
<path d="M347.16 119.82C346.165 118.886 345.236 117.884 344.38 116.82C343.397 115.883 342.478 114.881 341.63 113.82C342.83 114.517 343.891 115.428 344.76 116.51C345.75 117.463 346.562 118.584 347.16 119.82Z" fill="#FAFAFA"/>
<path d="M348.84 95.6302C347.982 96.523 347.002 97.2905 345.93 97.9102C344.948 98.6661 343.868 99.2851 342.72 99.7502C343.581 98.856 344.564 98.0883 345.64 97.4702C346.621 96.7184 347.697 96.0997 348.84 95.6302Z" fill="#FAFAFA"/>
<path d="M338.06 86.8802C337.111 87.8034 336.041 88.5939 334.88 89.2302C333.815 90.0185 332.652 90.6639 331.42 91.1502C332.37 90.2255 333.44 89.4318 334.6 88.7903C335.669 88.0117 336.832 87.3701 338.06 86.8802Z" fill="#FAFAFA"/>
<path d="M347.78 90.3602C347.125 89.3922 346.613 88.3346 346.26 87.2202C345.768 86.1607 345.431 85.0358 345.26 83.8802C345.923 84.8473 346.436 85.9094 346.78 87.0302C347.278 88.084 347.615 89.2065 347.78 90.3602Z" fill="#FAFAFA"/>
<path d="M361.15 94.7503C359.551 93.6414 358.163 92.2564 357.05 90.6603C357.897 91.1444 358.652 91.7741 359.28 92.5203C360.033 93.1441 360.667 93.8998 361.15 94.7503Z" fill="#FAFAFA"/>
<path d="M355.64 104.5C355.322 103.512 355.177 102.477 355.21 101.44C355.061 100.416 355.091 99.3739 355.3 98.3602C355.76 100.373 355.875 102.449 355.64 104.5Z" fill="#FAFAFA"/>
<path d="M366.75 102.48C365.586 102.666 364.398 102.625 363.25 102.36C362.078 102.264 360.935 101.949 359.88 101.43C361.042 101.443 362.199 101.583 363.33 101.85C364.489 101.938 365.636 102.149 366.75 102.48Z" fill="#FAFAFA"/>
<path d="M321.95 122.63C321.135 121.501 320.463 120.275 319.95 118.98C319.28 117.758 318.763 116.458 318.41 115.11C319.226 116.239 319.897 117.465 320.41 118.76C321.082 119.981 321.6 121.281 321.95 122.63Z" fill="#FAFAFA"/>
<path d="M336.64 138.41C335.7 137.556 334.883 136.577 334.21 135.5C333.407 134.518 332.735 133.436 332.21 132.28C333.152 133.135 333.973 134.114 334.65 135.19C335.457 136.168 336.127 137.251 336.64 138.41Z" fill="#FAFAFA"/>
<path d="M348.78 131.79C347.751 132.461 346.634 132.986 345.46 133.35C344.348 133.875 343.166 134.236 341.95 134.42C344.089 133.221 346.389 132.335 348.78 131.79Z" fill="#FAFAFA"/>
<path d="M318.87 144.57C319.35 142.684 320.159 140.896 321.26 139.29C321.091 140.259 320.752 141.189 320.26 142.04C319.949 142.959 319.478 143.815 318.87 144.57Z" fill="#FAFAFA"/>
<path d="M309.46 99.3802C308.882 98.6477 308.534 97.7604 308.46 96.8302C308.224 95.9289 308.266 94.9774 308.58 94.1002C308.786 94.9677 308.92 95.8507 308.98 96.7402C309.211 97.6058 309.372 98.4887 309.46 99.3802Z" fill="#FAFAFA"/>
<path d="M326.17 134.45C325.102 134.169 324.089 133.713 323.17 133.1C322.174 132.648 321.256 132.04 320.45 131.3C321.516 131.586 322.529 132.042 323.45 132.65C324.442 133.11 325.359 133.717 326.17 134.45Z" fill="#FAFAFA"/>
<path d="M335.82 117.79C334.18 119.754 332.275 121.481 330.16 122.92C330.919 121.885 331.814 120.957 332.82 120.16C333.707 119.237 334.717 118.44 335.82 117.79Z" fill="#FAFAFA"/>
<g opacity="0.3">
<path opacity="0.3" d="M329.91 117.48C330.395 120.966 331.95 124.216 334.36 126.78C336.86 129.22 340.73 130.45 343.98 129.18C344.335 129.083 344.661 128.901 344.931 128.65C345.201 128.399 345.407 128.087 345.53 127.74C345.585 127.314 345.49 126.881 345.263 126.517C345.035 126.152 344.687 125.878 344.28 125.74C343.47 125.48 342.621 125.358 341.77 125.38C339.345 125.221 337.001 124.445 334.96 123.125C332.92 121.806 331.25 119.986 330.11 117.84" fill="black"/>
</g>
<path d="M342.91 125.54C342.91 125.54 342.68 125.62 342.24 125.66C341.622 125.723 340.998 125.723 340.38 125.66C339.462 125.552 338.559 125.338 337.69 125.02C335.546 124.249 333.643 122.929 332.17 121.19C331.572 120.486 331.059 119.714 330.64 118.89C330.346 118.341 330.114 117.761 329.95 117.16C329.87 116.946 329.826 116.719 329.82 116.49C329.92 116.49 330.19 117.39 330.96 118.71C331.411 119.48 331.937 120.204 332.53 120.87C333.265 121.681 334.087 122.408 334.98 123.04C335.883 123.652 336.848 124.165 337.86 124.57C338.69 124.897 339.551 125.138 340.43 125.29C341.94 125.51 342.91 125.44 342.91 125.54Z" fill="#263238"/>
<path d="M287.86 141.66L302.34 139.97L312.55 146.66L351.55 137.3L352.47 110.58L369.8 108.3V140.65C369.703 144.578 368.053 148.306 365.211 151.019C362.369 153.731 358.568 155.206 354.64 155.12L297.48 153.53L295.05 148.67L282.78 148.3L287.86 141.66Z" fill="#FFBE9D"/>
<path d="M351.09 137.25C350.85 137.346 350.602 137.423 350.35 137.48L348.23 138.03L340.4 139.97L314.52 146.24L312.11 146.82H312.01H311.93L301.73 140.11H301.87L287.38 141.79L287.48 141.73L283.64 146.6L282.64 147.88C282.529 148.034 282.401 148.174 282.26 148.3C282.353 148.137 282.457 147.98 282.57 147.83L283.57 146.51L287.29 141.57H287.35L301.82 139.76H301.9H301.96L312.18 146.44H312L314.41 145.86L340.32 139.72L348.19 137.91L350.33 137.44C350.578 137.357 350.832 137.294 351.09 137.25Z" fill="#EB996E"/>
<path d="M295.77 145.81C293.902 146.029 292.02 146.102 290.14 146.03H289.14L289.28 145.98C288.149 147.02 286.927 147.957 285.63 148.78C286.661 147.642 287.785 146.592 288.99 145.64L289.05 145.58H290.16C292.033 145.503 293.909 145.58 295.77 145.81Z" fill="#EB996E"/>
<path d="M358.28 141.62C357.535 140.444 356.567 139.425 355.43 138.62C354.224 137.939 352.895 137.504 351.52 137.34C351.925 137.2 352.358 137.166 352.78 137.24C353.801 137.348 354.784 137.69 355.651 138.24C356.518 138.79 357.247 139.533 357.78 140.41C358.05 140.763 358.222 141.18 358.28 141.62Z" fill="#EB996E"/>
<path d="M108.19 355.24H42.89V364.21H108.19V355.24Z" fill="#263238"/>
<path d="M108.3 364.33H42.78V355.13H108.3V364.33ZM43 364.1H108.08V355.35H43V364.1Z" fill="#263238"/>
<path d="M48.9501 361.23L58.3401 407.6H93.1201L102.21 364.22L48.9501 361.23Z" fill="#263238"/>
<path d="M48.9501 403.21L53.9601 410.11H96.2301L102.21 403.21H48.9501Z" fill="#455A64"/>
<path d="M73.09 362.58C72.96 362.58 72.8 341.1 72.72 314.58C72.64 288.06 72.72 266.58 72.82 266.58C72.92 266.58 73.11 288.06 73.19 314.58C73.27 341.1 73.22 362.58 73.09 362.58Z" fill="#263238"/>
<path d="M87.6401 308.82C87.5966 308.992 87.5363 309.16 87.4601 309.32C87.3101 309.69 87.1101 310.15 86.8801 310.71C86.7501 311.02 86.6101 311.35 86.4501 311.71C86.2901 312.07 86.1701 312.5 86.0201 312.93L85.5101 314.33C85.3401 314.83 85.2001 315.33 85.0301 315.93C84.2543 318.556 83.6431 321.228 83.2001 323.93C82.6983 327.245 82.3645 330.582 82.2001 333.93C81.964 340.022 82.1377 346.122 82.7201 352.19C82.9301 354.53 83.1401 356.41 83.3001 357.71C83.3601 358.32 83.4201 358.82 83.4601 359.21C83.4736 359.387 83.4736 359.564 83.4601 359.74C83.3971 359.573 83.3567 359.398 83.3401 359.22C83.2701 358.83 83.1901 358.34 83.0901 357.74C82.8801 356.44 82.6101 354.56 82.3601 352.23C81.6801 346.149 81.4628 340.025 81.7101 333.91C81.8584 330.544 82.1923 327.189 82.7101 323.86C83.1726 321.152 83.8208 318.479 84.6501 315.86C84.8301 315.3 84.9801 314.76 85.1601 314.27L85.7001 312.87L86.1801 311.66C86.3401 311.29 86.5001 310.97 86.6401 310.66L87.3101 309.3C87.3939 309.124 87.5053 308.962 87.6401 308.82Z" fill="#263238"/>
<path d="M85.9701 291.45C85.9147 291.691 85.8446 291.928 85.76 292.16C85.59 292.65 85.3601 293.32 85.0801 294.16L84.5801 295.6C84.4201 296.14 84.2401 296.72 84.0501 297.34C83.6701 298.58 83.23 299.99 82.84 301.58L82.18 304.07C81.98 304.94 81.78 305.85 81.57 306.78C81.11 308.65 80.7801 310.68 80.3601 312.78C79.6401 317.04 79.01 321.78 78.57 326.73C78.13 331.68 77.98 336.47 77.92 340.8C77.86 345.13 77.9201 349.03 78.1401 352.3C78.1901 353.94 78.3001 355.41 78.3801 356.71C78.4601 358.01 78.54 359.13 78.62 360.04C78.7 360.95 78.74 361.62 78.78 362.15C78.7934 362.394 78.7934 362.637 78.78 362.88C78.7158 362.645 78.6756 362.404 78.6601 362.16C78.6001 361.63 78.5201 360.94 78.4101 360.06C78.3001 359.18 78.19 358.06 78.09 356.73C77.99 355.4 77.86 353.96 77.78 352.32C77.56 349.04 77.4701 345.14 77.4601 340.8C77.4501 336.46 77.6601 331.69 78.0801 326.7C78.5001 321.71 79.1701 316.98 79.9101 312.7C80.3401 310.57 80.6901 308.54 81.1601 306.7C81.3801 305.76 81.6001 304.85 81.8001 303.98L82.4901 301.5C82.9001 299.91 83.37 298.5 83.78 297.26C83.98 296.64 84.17 296.07 84.34 295.53C84.51 294.99 84.7101 294.53 84.8801 294.1L85.6401 292.1C85.7252 291.872 85.836 291.654 85.9701 291.45Z" fill="#263238"/>
<path d="M68.96 366.38C68.9496 366.297 68.9496 366.213 68.96 366.13C68.96 365.94 68.96 365.7 68.9 365.39C68.85 364.71 68.79 363.76 68.71 362.55C68.55 360.04 68.33 356.48 68.05 352.08C67.49 343.25 66.67 331.08 65.18 317.63C64.42 310.91 63.54 304.54 62.62 298.76C62.14 295.88 61.7 293.14 61.19 290.58C60.68 288.02 60.19 285.65 59.79 283.48C59.39 281.31 58.88 279.37 58.49 277.66C58.1 275.95 57.75 274.47 57.49 273.27C57.23 272.07 56.98 271.17 56.81 270.5C56.75 270.21 56.69 269.97 56.65 269.78C56.6346 269.698 56.6346 269.613 56.65 269.53C56.6912 269.606 56.7215 269.686 56.74 269.77L56.94 270.48C57.13 271.14 57.38 272.06 57.71 273.23C58.04 274.4 58.43 275.88 58.84 277.6C59.25 279.32 59.75 281.25 60.2 283.42C60.65 285.59 61.2 287.95 61.66 290.51C62.12 293.07 62.66 295.81 63.14 298.7C64.08 304.48 64.97 310.86 65.73 317.57C67.22 331.01 67.99 343.22 68.47 352.06C68.71 356.49 68.88 360.06 68.98 362.54C68.98 363.75 69.06 364.7 69.08 365.39C69.08 365.69 69.08 365.94 69.08 366.13C69.0527 366.219 69.0123 366.303 68.96 366.38Z" fill="#263238"/>
<path d="M72.56 276.97C72.27 273.97 69.2 271.63 66.14 271.6C64.6095 271.668 63.1144 272.083 61.7682 272.814C60.4219 273.545 59.2598 274.573 58.37 275.82C56.6099 278.331 55.3377 281.15 54.62 284.13C52.56 291.3 51.44 298.83 52.32 306.24C53.2 313.65 56.2 320.94 61.52 326.17C62.38 327.03 63.52 327.88 64.69 327.62C65.3232 327.436 65.8982 327.091 66.36 326.62C71.567 321.853 75.694 316.027 78.4639 309.533C81.2339 303.039 82.5828 296.028 82.42 288.97C82.34 286.16 81.97 283.22 80.42 280.88C78.87 278.54 75.22 276.04 72.57 276.98" fill="#FF725E"/>
<path d="M49.7301 252.57L45.4301 260.37C45.3301 260.55 45.2001 260.76 44.9901 260.77C44.7801 260.78 44.5901 260.58 44.4701 260.39L33.0901 242.97L35.7101 241.48L49.7301 252.57Z" fill="#FF725E"/>
<g opacity="0.2">
<path opacity="0.2" d="M49.7301 252.57L45.4301 260.37C45.3301 260.55 45.2001 260.76 44.9901 260.77C44.7801 260.78 44.5901 260.58 44.4701 260.39L33.0901 242.97L35.7101 241.48L49.7301 252.57Z" fill="black"/>
</g>
<path d="M72.82 266.62L34 243.71C33.7791 243.626 33.577 243.498 33.4054 243.335C33.2338 243.172 33.0961 242.977 33 242.76C32.85 242.19 33.28 241.63 33.69 241.2C36.3612 238.432 39.5969 236.272 43.1774 234.865C46.7578 233.459 50.5991 232.84 54.44 233.05C58.2794 233.327 61.9939 234.533 65.2624 236.567C68.5309 238.6 71.2552 241.398 73.2 244.72C76.94 251.41 77.07 260.27 72.77 266.62" fill="#FF725E"/>
<path d="M39.64 236.4C39.806 236.354 39.978 236.334 40.15 236.34C40.48 236.34 40.98 236.26 41.62 236.27C43.4224 236.246 45.2232 236.387 47 236.69C49.6471 237.144 52.2271 237.927 54.68 239.02C58.9136 240.925 62.6736 243.743 65.6904 247.271C68.7072 250.8 70.9063 254.952 72.13 259.43C72.631 261.168 72.9658 262.949 73.13 264.75C73.21 265.38 73.19 265.88 73.21 266.22C73.2273 266.39 73.2273 266.561 73.21 266.73C73.21 266.73 73.12 266.03 72.96 264.73C72.7386 262.954 72.374 261.198 71.87 259.48C70.2421 253.78 67.049 248.65 62.653 244.673C58.257 240.696 52.8342 238.031 47 236.98C45.2417 236.646 43.4592 236.455 41.67 236.41C40.3 236.42 39.64 236.44 39.64 236.4Z" fill="#263238"/>
<path d="M67.56 250.81C66.9343 251.192 66.2621 251.491 65.56 251.7C64.32 252.19 62.56 252.81 60.66 253.43C58.76 254.05 56.96 254.53 55.66 254.85C54.9702 255.061 54.2593 255.195 53.54 255.25C54.1797 254.941 54.85 254.7 55.54 254.53L60.48 252.98L65.41 251.39C66.1057 251.126 66.8259 250.932 67.56 250.81Z" fill="#263238"/>
<path d="M61.4501 234.39C61.7976 235.806 61.9523 237.263 61.9101 238.72C62.0243 240.175 61.9436 241.638 61.6701 243.07C61.4827 241.632 61.4091 240.181 61.4501 238.73C61.3358 237.286 61.3358 235.835 61.4501 234.39Z" fill="#263238"/>
<path d="M33.64 243.28C34.5483 242.863 35.492 242.529 36.46 242.28C38.22 241.73 40.68 241.04 43.46 240.38C46.24 239.72 48.7 239.22 50.46 238.9C51.4465 238.68 52.4503 238.546 53.46 238.5C52.5107 238.805 51.5418 239.046 50.56 239.22C48.76 239.62 46.28 240.22 43.56 240.84C40.84 241.46 38.37 242.13 36.56 242.59C35.603 242.885 34.6275 243.115 33.64 243.28Z" fill="#263238"/>
<path d="M54.9201 269.75C51.5801 267.22 48.0501 266.75 43.8601 266.88C39.6694 267.147 35.5656 268.195 31.7601 269.97C25.2101 272.83 19.0601 277.06 15.1501 283.04C11.2401 289.02 9.87007 296.94 12.8001 303.46C13.0306 304.142 13.504 304.715 14.1301 305.07C14.8573 305.273 15.6328 305.213 16.3201 304.9C23.7701 302.47 31.2601 300.02 38.1101 296.22C44.9601 292.42 51.1901 287.13 54.8601 280.22C55.7999 278.608 56.4053 276.822 56.6401 274.97C56.7402 274.033 56.6395 273.086 56.3446 272.191C56.0498 271.296 55.5675 270.474 54.9301 269.78" fill="#FF725E"/>
<path d="M54.9801 268.97C54.8133 269.065 54.6353 269.139 54.4501 269.19L52.8901 269.73L51.7601 270.1C51.3501 270.25 50.9101 270.43 50.4401 270.62C49.5001 271 48.4401 271.38 47.2501 271.94L45.4301 272.77C44.7901 273.06 44.1601 273.42 43.4901 273.77C42.1401 274.43 40.7801 275.28 39.3201 276.14C33.0842 280.006 27.535 284.883 22.9001 290.57C21.9001 291.9 20.8501 293.15 20.0201 294.41C19.5901 295.03 19.1601 295.61 18.7801 296.2L17.7801 297.9C17.0801 298.97 16.5601 300.01 16.0601 300.9C15.8201 301.34 15.5801 301.75 15.3801 302.14C15.1801 302.53 15.0201 302.88 14.8701 303.21L14.1301 304.69C14.0604 304.869 13.9662 305.037 13.8501 305.19C13.8988 305.004 13.9658 304.823 14.0501 304.65L14.7001 303.13C14.8501 302.8 15.0101 302.44 15.1801 302.04C15.3501 301.64 15.6001 301.23 15.8301 300.78C16.3101 299.87 16.8301 298.78 17.4901 297.73C17.8301 297.18 18.1701 296.6 18.4901 296C18.8101 295.4 19.2901 294.82 19.7101 294.19C20.5301 292.91 21.5401 291.65 22.5701 290.3C24.9007 287.435 27.4554 284.76 30.2101 282.3C32.9954 279.881 35.9718 277.69 39.1101 275.75C40.5801 274.89 41.9601 274.05 43.3201 273.4C44.0001 273.06 44.6401 272.71 45.3201 272.4L47.1701 271.6C48.3401 271.05 49.4401 270.69 50.4001 270.33C50.8801 270.16 51.3201 269.99 51.7401 269.85L52.8801 269.51L54.4701 269.06C54.6377 269.018 54.8081 268.988 54.9801 268.97Z" fill="#263238"/>
<path d="M28.9 283.09C26.2414 284.103 23.5309 284.974 20.78 285.7C18.0705 286.581 15.3127 287.306 12.52 287.87C15.1787 286.858 17.8892 285.986 20.64 285.26C23.3512 284.385 26.1087 283.661 28.9 283.09Z" fill="#263238"/>
<path d="M28.56 300.97C28.4236 300.134 28.3634 299.287 28.38 298.44C28.38 296.88 28.38 294.71 28.38 292.33C28.38 289.95 28.58 287.78 28.71 286.22C28.7304 285.372 28.8376 284.527 29.03 283.7C29.0973 284.546 29.0973 285.395 29.03 286.24C28.97 287.95 28.91 290.03 28.84 292.34C28.77 294.65 28.73 296.73 28.68 298.44C28.7174 299.286 28.6773 300.133 28.56 300.97Z" fill="#263238"/>
<path d="M43.9201 293.19C43.7901 293.19 43.3801 288.8 43.0101 283.37C42.6401 277.94 42.4301 273.53 42.5601 273.53C42.6901 273.53 43.0901 277.91 43.4701 283.34C43.8501 288.77 44.0501 293.18 43.9201 293.19Z" fill="#263238"/>
<path d="M24.8101 273.1C25.6722 272.991 26.5428 272.965 27.4101 273.02C29.0101 273.02 31.2301 273.08 33.6801 273.16C36.1301 273.24 38.3401 273.34 39.9401 273.43C40.8088 273.442 41.6752 273.525 42.5301 273.68C41.6679 273.789 40.7973 273.816 39.9301 273.76C38.3301 273.76 36.1101 273.71 33.6601 273.62C31.2101 273.53 29.0001 273.44 27.3901 273.35C26.5245 273.341 25.6614 273.257 24.8101 273.1Z" fill="#263238"/>
<path d="M63.1901 328.25C63.1456 328.074 63.1254 327.892 63.1301 327.71C63.1301 327.32 63.1301 326.81 63.0601 326.19C63.0001 324.86 62.9901 322.95 63.0601 320.57C63.1301 318.19 63.2601 315.38 63.5401 312.26C63.8201 309.14 64.2801 305.71 64.9101 302.14C65.5401 298.57 66.3201 295.22 67.1101 292.14C67.9001 289.06 68.76 286.41 69.54 284.14C70.32 281.87 70.98 280.14 71.54 278.88C71.78 278.3 71.9701 277.88 72.1301 277.47C72.1914 277.303 72.2684 277.143 72.3601 276.99C72.3381 277.167 72.2875 277.34 72.2101 277.5L71.6401 278.97C71.1801 280.21 70.55 281.97 69.82 284.27C69.09 286.57 68.2901 289.27 67.5001 292.27C66.7101 295.27 65.9701 298.65 65.3301 302.21C64.6901 305.77 64.2601 309.21 63.9401 312.28C63.6201 315.35 63.4401 318.2 63.3601 320.56C63.2801 322.92 63.2301 324.84 63.2301 326.17C63.2301 326.79 63.2301 327.29 63.2301 327.69C63.2298 327.878 63.2165 328.065 63.1901 328.25Z" fill="#263238"/>
<path d="M65.2301 301.76C64.7761 302.381 64.2565 302.951 63.6801 303.46C62.6801 304.46 61.2501 305.8 59.6301 307.23C58.0101 308.66 56.4801 309.89 55.3501 310.76C54.7721 311.263 54.1418 311.702 53.4701 312.07C53.979 311.495 54.5416 310.969 55.1501 310.5L59.3201 306.88L63.4601 303.22C64.0023 302.678 64.595 302.19 65.2301 301.76Z" fill="#263238"/>
<path d="M77.5201 311.65C76.9119 310.934 76.3602 310.172 75.87 309.37L72.04 303.77L68.12 298.23C67.5387 297.491 67.0138 296.709 66.55 295.89C67.2268 296.544 67.8396 297.26 68.3801 298.03C69.4601 299.4 70.9001 301.32 72.3801 303.51C73.8601 305.7 75.2 307.71 76.11 309.19C76.656 309.964 77.128 310.788 77.5201 311.65Z" fill="#263238"/>
<path d="M71.08 280.52C71.15 280.63 67.08 283.38 61.97 286.66C56.86 289.94 52.67 292.52 52.6 292.41C52.53 292.3 56.6 289.55 61.72 286.27C66.84 282.99 71.02 280.42 71.08 280.52Z" fill="#263238"/>
<path d="M82.6401 292.97C80.4852 291.176 78.4257 289.27 76.4701 287.26C74.411 285.37 72.458 283.367 70.6201 281.26C72.7828 283.049 74.8459 284.956 76.8001 286.97C78.8605 288.856 80.8104 290.86 82.6401 292.97Z" fill="#263238"/>
<path d="M85.4901 292.7L88.9901 292.41C91.4791 292.207 93.8944 291.466 96.0701 290.24C97.135 289.62 98.237 289.065 99.3701 288.58C103.7 286.85 108.54 287.16 113.2 286.92C120.835 286.536 128.316 284.625 135.2 281.3C135.614 281.118 135.962 280.815 136.2 280.43C136.92 279.12 135.58 277.95 134.43 277.24C128.52 273.6 122.51 269.92 115.82 268.11C109.13 266.3 101.52 266.61 95.8201 270.54C89.1201 275.16 86.6701 284.64 85.5401 292.7" fill="#FF725E"/>
<path d="M136.23 279.97C136.029 279.888 135.832 279.794 135.64 279.69L133.98 278.82C132.54 278.06 130.47 276.94 127.84 275.69C124.794 274.186 121.618 272.961 118.35 272.03C114.354 270.881 110.169 270.541 106.04 271.03C101.905 271.49 98 273.168 94.8201 275.85C92.3362 278.158 90.3491 280.948 88.9801 284.05C87.7501 286.68 86.9801 288.92 86.4401 290.44L85.8101 292.21C85.7481 292.42 85.6678 292.624 85.5701 292.82C85.5988 292.602 85.6491 292.388 85.7201 292.18C85.8601 291.73 86.0401 291.13 86.2601 290.39C86.9274 288.206 87.7221 286.062 88.6401 283.97C89.9876 280.796 91.9836 277.938 94.5001 275.58C97.7247 272.802 101.711 271.06 105.94 270.58C110.125 270.074 114.369 270.414 118.42 271.58C121.706 272.545 124.896 273.81 127.95 275.36C130.56 276.66 132.61 277.82 134.03 278.63L135.65 279.58C135.859 279.685 136.054 279.816 136.23 279.97Z" fill="#263238"/>
<path d="M127.82 284.52C127.75 284.62 123.16 281.66 117.58 277.9C112 274.14 107.53 271 107.58 270.9C107.63 270.8 112.23 273.76 117.81 277.52C123.39 281.28 127.89 284.41 127.82 284.52Z" fill="#263238"/>
<path d="M123.42 270.45C121.085 271.184 118.62 271.413 116.19 271.12C117.378 270.873 118.587 270.732 119.8 270.7C120.997 270.513 122.208 270.429 123.42 270.45Z" fill="#263238"/>
<path d="M102.87 266.77C101.996 268.84 100.849 270.784 99.4601 272.55C99.818 271.485 100.323 270.476 100.96 269.55C101.462 268.538 102.105 267.602 102.87 266.77Z" fill="#263238"/>
<path d="M106.97 287.22C106.197 286.898 105.46 286.496 104.77 286.02C103.44 285.22 101.65 284.02 99.7701 282.65C97.8901 281.28 96.1801 279.95 94.9601 278.99C94.2771 278.508 93.641 277.962 93.0601 277.36C93.8031 277.747 94.5065 278.206 95.1601 278.73L100.05 282.28C101.95 283.66 103.7 284.87 104.98 285.75C105.685 286.181 106.351 286.673 106.97 287.22Z" fill="#263238"/>
<path d="M90.6401 307.59C87.3001 306.7 83.3101 309.95 82.6401 313.34C81.9701 316.73 83.2301 320.19 84.7101 323.34C87.8949 330.335 92.6192 336.519 98.5301 341.43C104.492 346.319 111.931 349.05 119.64 349.18C118.23 342.62 120.01 335.76 119.23 329.09C118.533 323.215 115.864 317.751 111.659 313.589C107.454 309.428 101.962 306.816 96.0801 306.18C93.9501 305.95 91.4801 305.62 90.6301 307.59" fill="#FF725E"/>
<path d="M119.64 349.18C119.472 349.125 119.312 349.051 119.16 348.96C118.722 348.713 118.304 348.432 117.91 348.12C116.51 346.901 115.385 345.398 114.61 343.71C114.08 342.71 113.48 341.55 112.9 340.3C112.32 339.05 111.74 337.73 111.1 336.3C110.459 334.836 109.72 333.416 108.89 332.05C108 330.594 106.997 329.21 105.89 327.91C103.61 325.23 101.15 322.91 99.0201 320.68C97.0943 318.74 95.341 316.635 93.78 314.39C92.7343 312.868 91.8749 311.227 91.22 309.5C91.01 308.89 90.8501 308.4 90.7701 308.07C90.7147 307.905 90.6811 307.734 90.67 307.56C90.67 307.56 90.9 308.24 91.39 309.44C92.1032 311.121 92.995 312.72 94.05 314.21C95.6409 316.406 97.4066 318.469 99.33 320.38C101.47 322.58 103.94 324.9 106.25 327.61C107.382 328.928 108.409 330.332 109.32 331.81C110.147 333.199 110.885 334.638 111.53 336.12L113.29 340.12C113.85 341.36 114.43 342.5 114.95 343.53C115.68 345.203 116.741 346.71 118.07 347.96C119.03 348.82 119.69 349.14 119.64 349.18Z" fill="#263238"/>
<path d="M102.37 343.73C102.39 342.971 102.494 342.217 102.68 341.48C102.94 340.1 103.37 338.21 103.95 336.15C104.53 334.09 105.15 332.26 105.65 330.95C105.869 330.223 106.175 329.525 106.56 328.87C106.425 329.613 106.224 330.343 105.96 331.05C105.54 332.39 104.96 334.23 104.4 336.28C103.84 338.33 103.4 340.19 103 341.55C102.862 342.296 102.651 343.026 102.37 343.73Z" fill="#263238"/>
<path d="M119.03 327.62C118.23 327.503 117.44 327.319 116.67 327.07C115.23 326.7 113.24 326.18 111.03 325.68C108.82 325.18 106.8 324.8 105.34 324.52C104.54 324.418 103.75 324.244 102.98 324C103.788 323.98 104.596 324.047 105.39 324.2C106.87 324.39 108.91 324.73 111.13 325.2C113.35 325.67 115.34 326.27 116.76 326.73C117.546 326.948 118.306 327.246 119.03 327.62Z" fill="#263238"/>
<path d="M89.9701 332.3C90.0078 331.421 90.1283 330.547 90.3301 329.69C90.6301 328.1 91.0901 325.9 91.7201 323.51C92.3501 321.12 93.0101 318.97 93.5301 317.43C93.7868 316.585 94.1215 315.764 94.5301 314.98C94.3848 315.846 94.1708 316.699 93.8901 317.53C93.4501 319.09 92.8301 321.24 92.2101 323.62C91.5901 326 91.0701 328.19 90.7001 329.76C90.5295 330.626 90.2853 331.476 89.9701 332.3Z" fill="#263238"/>
<path d="M111.36 313.58C111.36 313.7 107.17 313.37 102.04 312.82C96.9101 312.27 92.7501 311.73 92.7701 311.61C95.8876 311.7 98.9984 311.95 102.09 312.36C105.199 312.609 108.293 313.016 111.36 313.58Z" fill="#263238"/>
<path d="M108.3 364.18C108.3 364.31 93.63 364.41 75.54 364.41C57.45 364.41 42.78 364.31 42.78 364.18C42.78 364.05 57.45 363.95 75.54 363.95C93.63 363.95 108.3 364.05 108.3 364.18Z" fill="#455A64"/>
<path d="M98.1001 383.05C98.1001 383.18 88.2101 383.29 76.0201 383.29C63.8301 383.29 53.9501 383.18 53.9501 383.05C53.9501 382.92 63.8301 382.82 76.0201 382.82C88.2101 382.82 98.1001 382.97 98.1001 383.05Z" fill="#455A64"/>
<path d="M98.4801 385.75C98.4801 385.88 88.6001 385.98 76.4101 385.98C64.2201 385.98 54.3401 385.88 54.3401 385.75C54.3401 385.62 64.2201 385.52 76.4101 385.52C88.6001 385.52 98.4801 385.62 98.4801 385.75Z" fill="#455A64"/>
<path d="M98.4801 380.83C98.4801 380.96 88.2601 381.06 75.6501 381.06C63.0401 381.06 52.8201 380.96 52.8201 380.83C52.8201 380.7 63.0401 380.6 75.6501 380.6C88.2601 380.6 98.4801 380.7 98.4801 380.83Z" fill="#455A64"/>
</svg>
