<svg width="78" height="37" viewBox="0 0 78 37" fill="none" xmlns="http://www.w3.org/2000/svg">
<path d="M5.524 0.36V27H0.484V0.36H5.524ZM19.3595 27.324C17.4395 27.324 15.7115 26.904 14.1755 26.064C12.6395 25.2 11.4275 23.988 10.5395 22.428C9.67553 20.868 9.24353 19.068 9.24353 17.028C9.24353 14.988 9.68753 13.188 10.5755 11.628C11.4875 10.068 12.7235 8.868 14.2835 8.028C15.8435 7.164 17.5835 6.732 19.5035 6.732C21.4235 6.732 23.1635 7.164 24.7235 8.028C26.2835 8.868 27.5075 10.068 28.3955 11.628C29.3075 13.188 29.7635 14.988 29.7635 17.028C29.7635 19.068 29.2955 20.868 28.3595 22.428C27.4475 23.988 26.1995 25.2 24.6155 26.064C23.0555 26.904 21.3035 27.324 19.3595 27.324ZM19.3595 22.932C20.2715 22.932 21.1235 22.716 21.9155 22.284C22.7315 21.828 23.3795 21.156 23.8595 20.268C24.3395 19.38 24.5795 18.3 24.5795 17.028C24.5795 15.132 24.0755 13.68 23.0675 12.672C22.0835 11.64 20.8715 11.124 19.4315 11.124C17.9915 11.124 16.7795 11.64 15.7955 12.672C14.8355 13.68 14.3555 15.132 14.3555 17.028C14.3555 18.924 14.8235 20.388 15.7595 21.42C16.7195 22.428 17.9195 22.932 19.3595 22.932ZM41.2726 6.732C42.7606 6.732 44.0686 7.032 45.1966 7.632C46.3246 8.208 47.2126 8.964 47.8606 9.9V7.056H52.9366V27.144C52.9366 28.992 52.5646 30.636 51.8206 32.076C51.0766 33.54 49.9606 34.692 48.4726 35.532C46.9846 36.396 45.1846 36.828 43.0726 36.828C40.2406 36.828 37.9126 36.168 36.0886 34.848C34.2886 33.528 33.2686 31.728 33.0286 29.448H38.0326C38.2966 30.36 38.8606 31.08 39.7246 31.608C40.6126 32.16 41.6806 32.436 42.9286 32.436C44.3926 32.436 45.5806 31.992 46.4926 31.104C47.4046 30.24 47.8606 28.92 47.8606 27.144V24.048C47.2126 24.984 46.3126 25.764 45.1606 26.388C44.0326 27.012 42.7366 27.324 41.2726 27.324C39.5926 27.324 38.0566 26.892 36.6646 26.028C35.2726 25.164 34.1686 23.952 33.3526 22.392C32.5606 20.808 32.1646 18.996 32.1646 16.956C32.1646 14.94 32.5606 13.152 33.3526 11.592C34.1686 10.032 35.2606 8.832 36.6286 7.992C38.0206 7.152 39.5686 6.732 41.2726 6.732ZM47.8606 17.028C47.8606 15.804 47.6206 14.76 47.1406 13.896C46.6606 13.008 46.0126 12.336 45.1966 11.88C44.3806 11.4 43.5046 11.16 42.5686 11.16C41.6326 11.16 40.7686 11.388 39.9766 11.844C39.1846 12.3 38.5366 12.972 38.0326 13.86C37.5526 14.724 37.3126 15.756 37.3126 16.956C37.3126 18.156 37.5526 19.212 38.0326 20.124C38.5366 21.012 39.1846 21.696 39.9766 22.176C40.7926 22.656 41.6566 22.896 42.5686 22.896C43.5046 22.896 44.3806 22.668 45.1966 22.212C46.0126 21.732 46.6606 21.06 47.1406 20.196C47.6206 19.308 47.8606 18.252 47.8606 17.028ZM66.715 27.324C64.795 27.324 63.067 26.904 61.531 26.064C59.995 25.2 58.783 23.988 57.895 22.428C57.031 20.868 56.599 19.068 56.599 17.028C56.599 14.988 57.043 13.188 57.931 11.628C58.843 10.068 60.079 8.868 61.639 8.028C63.199 7.164 64.939 6.732 66.859 6.732C68.779 6.732 70.519 7.164 72.079 8.028C73.639 8.868 74.863 10.068 75.751 11.628C76.663 13.188 77.119 14.988 77.119 17.028C77.119 19.068 76.651 20.868 75.715 22.428C74.803 23.988 73.555 25.2 71.971 26.064C70.411 26.904 68.659 27.324 66.715 27.324ZM66.715 22.932C67.627 22.932 68.479 22.716 69.271 22.284C70.087 21.828 70.735 21.156 71.215 20.268C71.695 19.38 71.935 18.3 71.935 17.028C71.935 15.132 71.431 13.68 70.423 12.672C69.439 11.64 68.227 11.124 66.787 11.124C65.347 11.124 64.135 11.64 63.151 12.672C62.191 13.68 61.711 15.132 61.711 17.028C61.711 18.924 62.179 20.388 63.115 21.42C64.075 22.428 65.275 22.932 66.715 22.932Z" fill="#38436A"/>
</svg>
