<svg width="665" height="481" viewBox="0 0 665 481" fill="none" xmlns="http://www.w3.org/2000/svg">
<path d="M665 435.442H0V435.775H665V435.442Z" fill="#EBEBEB"/>
<path d="M598.367 456.842H527.784V457.174H598.367V456.842Z" fill="#EBEBEB"/>
<path d="M440.523 452.679H362.505V453.011H440.523V452.679Z" fill="#EBEBEB"/>
<path d="M531.189 450.764H505.666V451.096H531.189V450.764Z" fill="#EBEBEB"/>
<path d="M191.068 446.734H133.625V447.066H191.068V446.734Z" fill="#EBEBEB"/>
<path d="M126.217 446.734H105.682V447.066H126.217V446.734Z" fill="#EBEBEB"/>
<path d="M246.941 452.346H174.855V452.679H246.941V452.346Z" fill="#EBEBEB"/>
<path d="M315.21 376.124H58.4001C56.3883 376.12 54.46 375.319 53.0387 373.895C51.6174 372.471 50.8191 370.542 50.8191 368.53V7.5278C50.8366 5.52751 51.6426 3.61491 53.0621 2.20543C54.4815 0.795949 56.3997 0.0034266 58.4001 0H315.21C317.224 0 319.156 0.800112 320.58 2.22432C322.004 3.64853 322.804 5.58017 322.804 7.5943V368.53C322.804 370.544 322.004 372.475 320.58 373.9C319.156 375.324 317.224 376.124 315.21 376.124ZM58.4001 0.266001C56.4764 0.269524 54.6328 1.03616 53.2738 2.39763C51.9148 3.7591 51.1516 5.60415 51.1516 7.5278V368.53C51.1516 370.453 51.9148 372.298 53.2738 373.66C54.6328 375.021 56.4764 375.788 58.4001 375.792H315.21C317.135 375.788 318.98 375.022 320.341 373.661C321.702 372.3 322.468 370.455 322.472 368.53V7.5278C322.468 5.60293 321.702 3.75791 320.341 2.39681C318.98 1.03572 317.135 0.269517 315.21 0.266001H58.4001Z" fill="#EBEBEB"/>
<path d="M602.902 376.124H346.079C344.066 376.12 342.137 375.319 340.713 373.896C339.29 372.472 338.489 370.543 338.485 368.53V7.5278C338.506 5.5263 339.315 3.61371 340.737 2.2046C342.158 0.795485 344.078 0.00338923 346.079 0H602.902C604.9 0.00692198 606.815 0.800991 608.232 2.2101C609.648 3.6192 610.453 5.52981 610.47 7.5278V368.53C610.47 370.539 609.674 372.467 608.255 373.89C606.837 375.314 604.912 376.117 602.902 376.124ZM346.079 0.266001C344.155 0.269517 342.31 1.03572 340.948 2.39681C339.587 3.75791 338.821 5.60293 338.818 7.5278V368.53C338.821 370.455 339.587 372.3 340.948 373.661C342.31 375.022 344.155 375.788 346.079 375.792H602.902C604.827 375.788 606.672 375.022 608.033 373.661C609.394 372.3 610.161 370.455 610.164 368.53V7.5278C610.161 5.60293 609.394 3.75791 608.033 2.39681C606.672 1.03572 604.827 0.269517 602.902 0.266001H346.079Z" fill="#EBEBEB"/>
<path d="M156.222 338.857H75.451C71.6901 338.857 68.6414 341.906 68.6414 345.667V348.606C68.6414 352.367 71.6901 355.416 75.451 355.416H156.222C159.983 355.416 163.031 352.367 163.031 348.606V345.667C163.031 341.906 159.983 338.857 156.222 338.857Z" fill="#EBEBEB"/>
<path d="M94.8291 355.416H81.5424L66.4336 435.442H79.7203L94.8291 355.416Z" fill="#E0E0E0"/>
<path d="M121.349 355.416H108.062L100.628 435.442H113.914L121.349 355.416Z" fill="#E0E0E0"/>
<path d="M136.844 355.416H150.13L165.252 435.442H151.966L136.844 355.416Z" fill="#E0E0E0"/>
<path d="M572.977 20.8145H262.223V291.536H572.977V20.8145Z" fill="#E6E6E6"/>
<path d="M582.301 20.8145H266.572V291.536H582.301V20.8145Z" fill="#F0F0F0"/>
<path d="M572.977 291.549H262.223V296.79H572.977V291.549Z" fill="#E6E6E6"/>
<path d="M587.275 291.549H271.546V296.79H587.275V291.549Z" fill="#F0F0F0"/>
<path d="M569.24 283.13V29.2334L279.619 29.2334V283.13H569.24Z" fill="#FAFAFA"/>
<path d="M372.214 283.13L426.81 29.2334H462.973L408.376 283.13H372.214Z" fill="white"/>
<path d="M330 283.13L384.596 29.2334H420.759L366.162 283.13H330Z" fill="white"/>
<path d="M286.442 29.925V267.17C286.442 267.556 286.921 267.862 287.506 267.862H288.916C289.501 267.862 289.98 267.556 289.98 267.17V29.925C289.98 29.5393 289.501 29.2334 288.916 29.2334H287.506C286.921 29.26 286.442 29.5393 286.442 29.925Z" fill="#F0F0F0"/>
<path d="M465.207 283.13L519.804 29.2334H533.902L479.305 283.13H465.207Z" fill="white"/>
<path d="M569.24 283.13V29.2334H567.577V283.13H569.24Z" fill="#E6E6E6"/>
<path opacity="0.5" d="M585.386 39.767H274.632L273.421 32.5052H584.189L585.386 39.767Z" fill="#E0E0E0"/>
<path opacity="0.5" d="M585.386 64.6912H274.632L273.421 57.4161H584.189L585.386 64.6912Z" fill="#E0E0E0"/>
<path opacity="0.5" d="M585.386 89.6021H274.632L273.421 82.3403H584.189L585.386 89.6021Z" fill="#E0E0E0"/>
<path opacity="0.5" d="M585.386 114.526H274.632L273.421 107.265H584.189L585.386 114.526Z" fill="#E0E0E0"/>
<path opacity="0.5" d="M585.386 139.437H274.632L273.421 132.175H584.189L585.386 139.437Z" fill="#E0E0E0"/>
<path opacity="0.5" d="M585.386 164.361H274.632L273.421 157.099H584.189L585.386 164.361Z" fill="#E0E0E0"/>
<path opacity="0.5" d="M585.386 52.2291H274.632L273.421 44.9673H584.189L585.386 52.2291Z" fill="#E0E0E0"/>
<path opacity="0.5" d="M585.386 77.1401H274.632L273.421 69.8783H584.189L585.386 77.1401Z" fill="#E0E0E0"/>
<path opacity="0.5" d="M585.386 102.064H274.632L273.421 94.8025H584.189L585.386 102.064Z" fill="#E0E0E0"/>
<path opacity="0.5" d="M585.386 126.975H274.632L273.421 119.713H584.189L585.386 126.975Z" fill="#E0E0E0"/>
<path opacity="0.5" d="M585.386 151.899H274.632L273.421 144.637H584.189L585.386 151.899Z" fill="#E0E0E0"/>
<path opacity="0.5" d="M585.386 176.823H274.632L273.421 169.562H584.189L585.386 176.823Z" fill="#E0E0E0"/>
<path d="M572.977 312.071H531.827V435.442H572.977V312.071Z" fill="#E6E6E6"/>
<path d="M547.907 435.442H572.977V421.278H521.626L547.907 435.442Z" fill="#EBEBEB"/>
<path d="M449.633 312.071H408.483V435.442H449.633V312.071Z" fill="#E6E6E6"/>
<path d="M572.977 312.071H427.768V432.503H572.977V312.071Z" fill="#EBEBEB"/>
<path d="M452.838 435.442H427.768V421.278H479.119L452.838 435.442Z" fill="#EBEBEB"/>
<path d="M553.533 325.956H447.212V388.001H553.533V325.956Z" fill="#FAFAFA"/>
<path d="M553.533 394.318H447.212V423.844H553.533V394.318Z" fill="#FAFAFA"/>
<path d="M510.281 329.122H490.464C488.95 329.118 487.498 328.514 486.429 327.442C485.359 326.37 484.758 324.917 484.758 323.403H516.04C516.04 324.157 515.891 324.904 515.601 325.601C515.311 326.297 514.886 326.929 514.351 327.461C513.815 327.992 513.18 328.413 512.482 328.698C511.783 328.983 511.035 329.127 510.281 329.122Z" fill="#EBEBEB"/>
<path d="M510.281 397.471H490.464C488.951 397.471 487.499 396.869 486.429 395.799C485.359 394.729 484.758 393.278 484.758 391.765H516.04C516.04 392.519 515.891 393.265 515.601 393.961C515.31 394.656 514.885 395.288 514.35 395.818C513.814 396.349 513.179 396.768 512.481 397.052C511.782 397.335 511.035 397.478 510.281 397.471Z" fill="#EBEBEB"/>
<path d="M416.636 312.071H375.486V435.442H416.636V312.071Z" fill="#E6E6E6"/>
<path d="M391.579 435.442H416.636V421.278H365.298L391.579 435.442Z" fill="#EBEBEB"/>
<path d="M293.305 312.071H252.155V435.442H293.305V312.071Z" fill="#E6E6E6"/>
<path d="M416.649 312.071H271.44V432.503H416.649V312.071Z" fill="#EBEBEB"/>
<path d="M296.497 435.442H271.44V421.278H322.778L296.497 435.442Z" fill="#EBEBEB"/>
<path d="M397.204 325.956H290.884V388.001H397.204V325.956Z" fill="#FAFAFA"/>
<path d="M397.204 394.318H290.884V423.844H397.204V394.318Z" fill="#FAFAFA"/>
<path d="M353.939 329.122H334.136C332.62 329.118 331.167 328.515 330.096 327.443C329.024 326.371 328.42 324.919 328.417 323.403H359.658C359.658 324.92 359.056 326.374 357.983 327.447C356.911 328.519 355.456 329.122 353.939 329.122Z" fill="#EBEBEB"/>
<path d="M353.939 397.471H334.136C332.621 397.471 331.169 396.87 330.097 395.8C329.024 394.731 328.42 393.279 328.417 391.765H359.658C359.658 392.515 359.51 393.258 359.223 393.951C358.935 394.645 358.514 395.274 357.983 395.804C357.451 396.334 356.821 396.754 356.127 397.04C355.433 397.326 354.69 397.472 353.939 397.471Z" fill="#EBEBEB"/>
<path d="M271.865 312.071L572.977 312.071V306.898L271.865 306.898V312.071Z" fill="#F0F0F0"/>
<path d="M271.865 306.884H252.155V312.058H271.865V306.884Z" fill="#E0E0E0"/>
<path d="M112.239 319.04C110.363 270.708 108.368 222.655 112.465 198.409L119.115 193.701C119.115 193.701 117.652 198.21 116.88 272.264C116.109 346.319 115.165 308.041 115.976 319.04H112.239Z" fill="#E6E6E6"/>
<path d="M122.985 147.63C133.266 120.844 157.219 94.9753 183.234 84.3885C193.448 80.2389 178.739 171.597 141.698 177.488C123.61 180.361 117.971 226.698 114.925 248.91C113.888 205.152 112.704 174.416 122.985 147.63Z" fill="#E6E6E6"/>
<path d="M120.791 215.633C128.026 204.168 139.85 188.102 157.126 188.089C176.704 188.089 159.573 220.328 136.551 230.649C125.313 235.676 115.936 251.636 113.502 261.638C113.715 241.355 113.555 227.098 120.791 215.633Z" fill="#E6E6E6"/>
<path d="M103.182 180.973C90.5998 158.682 62.5634 136.259 32.6916 126.057C20.9743 122.067 19.8172 188.089 82.9922 203.889C103.408 208.996 111.587 245.119 115.817 263.287C115.484 228.002 115.71 203.264 103.182 180.973Z" fill="#E6E6E6"/>
<path d="M110.071 233.827C102.091 219.623 80.252 212.68 60.6478 214.01C52.9604 214.529 52.1092 243.683 94.9219 254.948C107.903 258.366 113.143 281.228 115.843 292.799C115.617 270.322 118.077 248.045 110.071 233.827Z" fill="#E6E6E6"/>
<path d="M110.895 158.775C104.658 138.905 86.2904 121.097 69.4393 113.742C62.7893 110.856 60.781 143.8 96.9703 176.052C107.943 185.841 111.401 214.343 113.196 228.787C114.008 202.998 117.133 178.646 110.895 158.775Z" fill="#E6E6E6"/>
<path d="M114.194 338.857C101.027 338.857 90.1476 337.9 89.4028 320.091L87.2083 296.723H141.193L138.998 320.091C138.24 337.9 127.361 338.857 114.194 338.857Z" fill="#F0F0F0"/>
<path d="M141.392 306.352H87.0087L85.4526 295.406H142.949L141.392 306.352Z" fill="#F0F0F0"/>
<path d="M96.4871 56.6973L95.1587 56.7621L96.4619 83.5033L97.7903 83.4385L96.4871 56.6973Z" fill="#407BFF"/>
<path d="M98.2137 92.483L96.8853 92.5477L97.5255 105.686L98.8539 105.621L98.2137 92.483Z" fill="#407BFF"/>
<path d="M514.364 328.138H115.271C114.659 328.135 114.072 327.895 113.633 327.468C113.195 327.042 112.938 326.462 112.917 325.85L98.6064 31.9201C98.592 31.6021 98.6423 31.2845 98.7541 30.9865C98.866 30.6885 99.0371 30.4163 99.2571 30.1863C99.4772 29.9563 99.7416 29.7733 100.034 29.6484C100.327 29.5235 100.642 29.4593 100.961 29.4596H500.08C500.686 29.4586 501.269 29.6897 501.709 30.1053C502.149 30.5209 502.414 31.0895 502.448 31.694L516.758 325.73C516.764 326.047 516.706 326.361 516.587 326.655C516.469 326.948 516.293 327.215 516.07 327.44C515.847 327.664 515.581 327.842 515.288 327.962C514.995 328.081 514.681 328.141 514.364 328.138Z" fill="#407BFF"/>
<path opacity="0.8" d="M117.506 321.062L103.66 36.6816C103.646 36.363 103.696 36.0447 103.808 35.746C103.92 35.4473 104.091 35.1742 104.31 34.9431C104.53 34.7121 104.795 34.5279 105.087 34.4015C105.38 34.2751 105.696 34.2092 106.014 34.2078H495.452C496.058 34.2071 496.641 34.4405 497.08 34.8592C497.518 35.278 497.778 35.8497 497.806 36.4555L511.651 320.836C511.667 321.155 511.618 321.474 511.508 321.774C511.396 322.073 511.226 322.347 511.005 322.579C510.785 322.81 510.52 322.994 510.226 323.12C509.933 323.246 509.616 323.31 509.297 323.31H119.86C119.254 323.307 118.673 323.073 118.235 322.655C117.797 322.237 117.536 321.667 117.506 321.062Z" fill="white"/>
<path d="M215.327 307.416C215.018 307.414 214.722 307.294 214.497 307.082C214.273 306.87 214.137 306.581 214.117 306.273L201.708 51.3647C201.685 51.1977 201.696 51.0277 201.742 50.8655C201.789 50.7033 201.868 50.5525 201.976 50.4228C202.084 50.2932 202.217 50.1875 202.369 50.1125C202.52 50.0375 202.685 49.995 202.853 49.9875C203.022 49.9801 203.19 50.0079 203.347 50.0693C203.504 50.1306 203.646 50.2241 203.765 50.3437C203.884 50.4634 203.977 50.6066 204.037 50.764C204.097 50.9215 204.124 51.0899 204.115 51.2583L216.538 306.153C216.545 306.312 216.52 306.471 216.466 306.62C216.412 306.77 216.328 306.907 216.221 307.025C216.114 307.142 215.984 307.237 215.84 307.304C215.695 307.371 215.539 307.41 215.38 307.416H215.327Z" fill="white"/>
<path d="M412.407 307.416C412.098 307.414 411.801 307.294 411.577 307.082C411.352 306.87 411.216 306.581 411.196 306.273L398.787 51.3647C398.764 51.1977 398.776 51.0277 398.822 50.8655C398.868 50.7033 398.948 50.5525 399.055 50.4228C399.163 50.2932 399.297 50.1875 399.448 50.1125C399.599 50.0375 399.764 49.995 399.932 49.9875C400.101 49.9801 400.269 50.0079 400.426 50.0693C400.583 50.1306 400.726 50.2241 400.845 50.3437C400.964 50.4634 401.056 50.6066 401.116 50.764C401.177 50.9215 401.203 51.0899 401.195 51.2583L413.63 306.153C413.637 306.312 413.613 306.471 413.559 306.62C413.504 306.77 413.421 306.907 413.314 307.025C413.206 307.142 413.077 307.237 412.932 307.304C412.788 307.371 412.632 307.41 412.473 307.416H412.407Z" fill="white"/>
<path d="M313.88 307.416C313.571 307.414 313.275 307.294 313.05 307.082C312.826 306.87 312.69 306.581 312.67 306.273L300.248 51.3647C300.224 51.1977 300.236 51.0277 300.282 50.8655C300.328 50.7033 300.408 50.5525 300.516 50.4228C300.623 50.2932 300.757 50.1875 300.908 50.1125C301.059 50.0375 301.224 49.995 301.393 49.9875C301.561 49.9801 301.729 50.0079 301.886 50.0693C302.044 50.1306 302.186 50.2241 302.305 50.3437C302.424 50.4634 302.516 50.6066 302.576 50.764C302.637 50.9215 302.663 51.0899 302.655 51.2583L315.064 306.153C315.073 306.311 315.05 306.47 314.997 306.619C314.944 306.769 314.862 306.906 314.756 307.024C314.65 307.141 314.521 307.237 314.377 307.304C314.234 307.371 314.078 307.41 313.92 307.416H313.88Z" fill="white"/>
<path d="M487.631 77.6322H117.718C117.55 77.65 117.379 77.6321 117.218 77.5797C117.056 77.5273 116.908 77.4415 116.782 77.328C116.656 77.2146 116.555 77.0758 116.486 76.9209C116.417 76.7659 116.381 76.5982 116.381 76.4286C116.381 76.2589 116.417 76.0912 116.486 75.9362C116.555 75.7813 116.656 75.6426 116.782 75.5291C116.908 75.4156 117.056 75.3299 117.218 75.2775C117.379 75.2251 117.55 75.2072 117.718 75.2249H487.631C487.8 75.2072 487.97 75.2251 488.132 75.2775C488.293 75.3299 488.442 75.4156 488.568 75.5291C488.694 75.6426 488.795 75.7813 488.864 75.9362C488.933 76.0912 488.968 76.2589 488.968 76.4286C488.968 76.5982 488.933 76.7659 488.864 76.9209C488.795 77.0758 488.694 77.2146 488.568 77.328C488.442 77.4415 488.293 77.5273 488.132 77.5797C487.97 77.6321 487.8 77.65 487.631 77.6322Z" fill="white"/>
<path d="M128.864 62.7362C129.724 62.3916 130.654 62.253 131.577 62.3315C132.501 62.4101 133.394 62.7035 134.184 63.1885C135.514 64.0397 136.325 65.8484 138.001 66.2474C139.903 66.6331 140.488 65.077 141.831 64.186C143.534 63.0555 146.127 63.5609 148.029 63.7072C153.074 64.0796 158.115 64.5229 163.151 65.0371C168.125 65.5159 173.153 66.3671 178.114 65.3962C179.829 65.0637 179.098 62.4436 177.396 62.7362C172.315 63.7337 166.928 62.6432 161.835 62.1511C156.741 61.659 151.607 61.1935 146.473 60.8211C144.72 60.6046 142.94 60.7957 141.273 61.3797C140.486 61.7284 139.78 62.2355 139.198 62.8692C138.985 63.082 138.772 63.521 138.427 63.4678C138.081 63.4146 137.695 62.6299 137.562 62.4703C136.405 61.1642 134.882 60.2363 133.191 59.807C131.5 59.3777 129.719 59.4669 128.079 60.063C126.47 60.7014 127.161 63.3215 128.797 62.723L128.864 62.7362Z" fill="white"/>
<path d="M218.665 66.7262C220.687 65.21 223.733 63.1884 225.395 66.2208C226.233 67.737 227.044 69.5591 229.133 69.2399C231.221 68.9207 232.604 66.3272 234.067 65.1036C236.248 63.2549 238.456 62.7096 241.009 64.1992C242.997 65.6366 245.262 66.6465 247.659 67.1651C249.959 67.4513 252.293 67.0777 254.389 66.0878C255.593 65.4031 256.915 64.9519 258.286 64.7578C259.741 64.8699 261.188 65.0608 262.622 65.3297C265.724 65.4495 268.828 65.1543 271.852 64.4519C273.568 64.1327 272.836 61.5126 271.121 61.7919C267.838 62.5724 264.443 62.7661 261.092 62.3638C259.877 62.0823 258.625 61.9925 257.382 62.0978C256.21 62.306 255.072 62.6775 254.004 63.2017C251.224 64.412 248.537 64.9972 245.625 63.7071C243.364 62.7096 241.635 60.8609 239.081 60.4885C236.96 60.2737 234.84 60.8992 233.176 62.2308C232.228 62.9681 231.339 63.7774 230.516 64.6514C230.154 65.1231 229.759 65.5676 229.332 65.9814C228.667 66.4735 228.614 66.4203 228.215 65.6888C227.244 63.8667 226.313 62.3771 224.132 61.9382C221.538 61.4195 219.304 62.8293 217.322 64.3189C215.992 65.3563 217.322 67.7104 218.652 66.6597L218.665 66.7262Z" fill="white"/>
<path d="M320.53 65.9814C322.113 65.2366 323.722 64.5583 325.371 63.9731C326.98 63.2647 328.69 62.8158 330.439 62.6431C331.968 62.6431 333.311 63.5209 334.774 63.8401C335.9 64.091 337.076 63.9697 338.126 63.4943C339.084 63.0554 340.068 61.9781 341.105 61.8052C342.143 61.6323 343.286 63.0022 344.311 63.4677C345.348 63.9009 346.486 64.0345 347.596 63.8534C348.62 63.7337 350.123 63.2017 351.08 63.8534C352.038 64.5051 352.237 65.6622 353.195 66.2341C353.605 66.4823 354.072 66.6222 354.551 66.6409C355.03 66.6595 355.506 66.5561 355.935 66.3405C356.892 65.875 357.411 65.0105 358.209 64.3189C359.379 63.3347 360.736 63.88 362.079 64.1992C363.284 64.5459 364.542 64.6632 365.79 64.545C367.187 64.3588 368.809 63.4677 370.219 63.747C372.56 64.2125 373.77 66.6863 376.377 65.4095C377.946 64.6381 376.576 62.2973 375.047 63.0687C374.382 63.3879 372.453 61.7387 371.815 61.4195C370.669 60.9768 369.414 60.9024 368.224 61.2067C366.81 61.6757 365.322 61.8786 363.835 61.8052C362.59 61.483 361.329 61.2256 360.058 61.0338C358.932 60.9381 357.808 61.2496 356.892 61.9116C356.374 62.2973 355.256 64.013 354.578 63.8667C354.272 63.8667 353.78 62.7894 353.594 62.5367C353.29 62.1284 352.916 61.7772 352.49 61.4993C351.556 60.9772 350.478 60.7719 349.418 60.9141C348.236 61.209 347.012 61.2945 345.8 61.1668C344.656 60.8343 343.898 59.7171 342.754 59.3181C340.174 58.427 338.937 60.5417 336.73 61.1934C335.306 61.6057 333.843 60.5949 332.5 60.2358C331.11 59.87 329.648 59.87 328.257 60.2358C325.134 61.0836 322.101 62.2328 319.2 63.6672C317.631 64.412 319.001 66.7528 320.53 66.008V65.9814Z" fill="white"/>
<path d="M411.169 65.2499L418.418 63.1884C419.562 62.8559 420.719 62.4569 421.876 62.2042C423.011 62.0311 424.172 62.2417 425.174 62.8027C427.141 63.4048 429.201 63.6393 431.252 63.4943C433.673 63.4943 436.08 63.4943 438.501 63.4012L468.16 63.0421C468.513 63.0421 468.851 62.902 469.1 62.6526C469.35 62.4032 469.49 62.0649 469.49 61.7121C469.49 61.3594 469.35 61.0211 469.1 60.7717C468.851 60.5223 468.513 60.3821 468.16 60.3821L437.876 60.7545C435.495 60.7545 433.114 60.8343 430.734 60.8476C429.559 60.8919 428.382 60.8161 427.223 60.6215C426.132 60.3821 425.214 59.7703 424.164 59.4777C422.182 58.9324 419.921 59.9964 418.046 60.5417L410.491 62.6963C410.317 62.7435 410.153 62.8246 410.01 62.935C409.866 63.0454 409.746 63.183 409.656 63.3398C409.566 63.4967 409.507 63.6697 409.484 63.8491C409.461 64.0285 409.473 64.2108 409.52 64.3854C409.567 64.5601 409.649 64.7238 409.759 64.8671C409.869 65.0104 410.007 65.1306 410.164 65.2207C410.321 65.3109 410.494 65.3693 410.673 65.3925C410.853 65.4158 411.035 65.4035 411.209 65.3563L411.169 65.2499Z" fill="white"/>
<path opacity="0.3" d="M217.522 170.772L153.296 174.23C149.82 152.588 148.107 130.7 148.175 108.781L210.925 106.4C211.922 127.964 214.124 149.454 217.522 170.772Z" fill="#407BFF"/>
<path d="M218.985 167.833L154.759 171.291C151.082 150.001 148.86 128.485 148.109 106.892L212.335 103.421C213.349 124.999 215.569 146.503 218.985 167.833Z" fill="#407BFF"/>
<path opacity="0.3" d="M298.412 194.38L233.841 190.483V126.483L298.412 130.38V194.38Z" fill="#407BFF"/>
<path d="M297.561 192.943L233.003 189.046L233.761 124.674L298.319 128.558L297.561 192.943Z" fill="white"/>
<path opacity="0.3" d="M359.965 181.838L424.51 179.723C426.106 164.867 419.083 127.534 415.2 114.26L352.596 118.25C357.956 141.791 360.257 163.949 359.965 181.838Z" fill="#407BFF"/>
<path d="M361.068 179.723L423.578 176.504C425.174 161.662 421.038 137.336 416.37 112.146L352.211 116.216C357.504 139.783 361.361 161.835 361.068 179.723Z" fill="#407BFF"/>
<path opacity="0.3" d="M182.955 280.776L248.843 274.126C248.67 259.097 240.943 224.198 236.368 211.124L174.23 218.466C180.88 241.767 181.12 262.888 182.955 280.776Z" fill="#407BFF"/>
<path d="M184.511 279.859L248.032 272.956C248.817 258.007 243.364 233.867 237.392 208.917L173.711 216.484C178.832 239.839 183.819 262.01 184.511 279.859Z" fill="#407BFF"/>
<path opacity="0.3" d="M343.14 209.089L407.273 221.059C412.087 207.068 413.324 169.495 412.393 155.889L349.79 146.087C349.857 170.001 347.276 191.892 343.14 209.089Z" fill="#407BFF"/>
<path d="M344.643 207.294L406.954 217.801C411.782 203.809 413.005 179.43 413.909 154.107L349.71 144.052C349.79 167.966 348.833 190.097 344.643 207.294Z" fill="white"/>
<path d="M495.611 149.332C496.941 150.662 497.952 151.859 499.056 153.163C500.16 154.466 501.224 155.73 502.261 157.046C504.363 159.706 506.358 162.366 508.26 165.159C510.162 167.952 511.97 170.812 513.58 173.844C515.3 176.888 516.806 180.048 518.088 183.3L518.58 184.537L518.7 184.843L518.86 185.309L519.152 186.213C519.299 186.798 519.432 187.357 519.551 187.916C519.671 188.474 519.738 188.98 519.804 189.498C520.013 191.397 520.079 193.309 520.004 195.217C519.851 198.671 519.465 202.11 518.846 205.511C517.659 212.058 515.947 218.498 513.726 224.77L506.73 223.147C507.249 216.896 507.728 210.512 507.901 204.368C508.007 201.388 507.958 198.405 507.754 195.43C507.662 194.123 507.471 192.825 507.182 191.546L506.983 190.762L506.73 190.19L505.972 188.66C503.239 183.354 500.057 178.29 496.463 173.525C494.654 171.064 492.752 168.657 490.837 166.263C489.879 165.053 488.895 163.869 487.911 162.699L484.985 159.307L495.611 149.332Z" fill="#B65B52"/>
<path d="M507.581 220.527L502.74 225.728L512.21 231.314C512.21 231.314 515.481 226.964 514.205 222.509L507.581 220.527Z" fill="#B55B52"/>
<path d="M496.436 233.415L505.653 236.647L512.196 231.314L502.727 225.728L496.436 233.415Z" fill="#B55B52"/>
<path d="M522.983 254.722L462.109 241.422C465.146 220.85 469.59 200.511 475.409 180.547L536.296 193.847C530.717 213.872 526.272 234.196 522.983 254.722Z" fill="#407BFF"/>
<path d="M532.58 196.775L472.861 178.995L455.08 238.715L514.8 256.495L532.58 196.775Z" fill="white"/>
<path d="M461.111 109.432C461.111 110.204 460.632 110.762 460.127 110.762C459.621 110.762 459.249 110.111 459.289 109.339C459.329 108.568 459.768 108.009 460.273 108.009C460.778 108.009 461.151 108.661 461.111 109.432Z" fill="#263238"/>
<path d="M460.699 110.816C459.668 113.137 458.326 115.307 456.709 117.266C457.217 117.665 457.808 117.946 458.437 118.091C459.067 118.236 459.721 118.24 460.353 118.104L460.699 110.816Z" fill="#A02724"/>
<path d="M464.17 105.269C464.28 105.247 464.379 105.185 464.449 105.097C464.534 105.012 464.581 104.897 464.581 104.777C464.581 104.658 464.534 104.543 464.449 104.458C463.9 104.008 463.252 103.696 462.558 103.545C461.865 103.395 461.145 103.412 460.459 103.594C460.402 103.612 460.349 103.641 460.304 103.68C460.258 103.718 460.221 103.765 460.194 103.819C460.166 103.872 460.15 103.93 460.145 103.989C460.141 104.049 460.148 104.109 460.167 104.166C460.185 104.222 460.214 104.275 460.252 104.321C460.291 104.366 460.338 104.404 460.392 104.431C460.445 104.458 460.503 104.475 460.562 104.479C460.622 104.484 460.682 104.477 460.738 104.458C461.287 104.313 461.862 104.303 462.416 104.428C462.969 104.553 463.484 104.81 463.917 105.176C463.991 105.23 464.079 105.262 464.17 105.269Z" fill="#263238"/>
<path d="M484.253 120.498C482.79 127.507 481.846 137.203 486.674 141.871C486.674 141.871 484.679 148.973 471.658 148.973C457.36 148.973 464.862 142.749 464.862 142.749C470.833 140.9 470.873 134.131 469.583 128.691L484.253 120.498Z" fill="#B55B52"/>
<path d="M453.969 471.166C452.745 471.166 451.562 470.993 451.163 470.448C451.059 470.302 451.004 470.128 451.004 469.949C451.004 469.77 451.059 469.596 451.163 469.45C451.239 469.317 451.343 469.201 451.466 469.109C451.59 469.018 451.731 468.953 451.881 468.918C453.477 468.493 456.802 470.395 456.935 470.474C456.978 470.496 457.012 470.531 457.034 470.574C457.055 470.617 457.063 470.666 457.054 470.714C457.042 470.758 457.019 470.799 456.986 470.831C456.953 470.864 456.913 470.888 456.868 470.9C455.911 471.071 454.941 471.16 453.969 471.166ZM452.479 469.304C452.333 469.288 452.186 469.288 452.04 469.304C451.854 469.347 451.691 469.462 451.588 469.623C451.429 469.902 451.482 470.049 451.588 470.129C452.027 470.74 454.448 470.754 456.23 470.501C455.07 469.861 453.796 469.454 452.479 469.304Z" fill="#407BFF"/>
<path d="M456.868 470.9H456.775C455.618 470.381 453.357 468.306 453.543 467.229C453.543 466.976 453.783 466.657 454.394 466.591C454.631 466.554 454.873 466.569 455.102 466.636C455.332 466.702 455.544 466.819 455.724 466.976C456.921 467.974 457.148 470.554 457.161 470.66C457.158 470.74 457.124 470.816 457.068 470.873C457.038 470.891 457.005 470.903 456.971 470.907C456.936 470.912 456.902 470.909 456.868 470.9ZM454.581 467.016H454.434C454.035 467.016 454.009 467.216 453.995 467.269C453.876 467.921 455.419 469.543 456.589 470.248C456.491 469.166 456.064 468.141 455.365 467.309C455.147 467.121 454.869 467.017 454.581 467.016Z" fill="#407BFF"/>
<path d="M467.787 470.674H458.211L457.546 448.516H467.122L467.787 470.674Z" fill="#B55B52"/>
<path d="M457.892 469.57H468.346C468.536 469.569 468.72 469.633 468.868 469.752C469.015 469.87 469.118 470.036 469.158 470.222L470.94 478.72C470.984 478.928 470.981 479.143 470.93 479.35C470.879 479.556 470.782 479.749 470.647 479.912C470.511 480.076 470.34 480.207 470.147 480.295C469.953 480.384 469.743 480.427 469.53 480.423C465.766 480.423 460.326 480.143 455.578 480.143C450.045 480.143 446.548 480.449 440.044 480.449C436.12 480.449 435.083 476.459 436.732 476.113C444.233 474.478 449.061 474.305 455.578 470.315C456.265 469.855 457.067 469.597 457.892 469.57Z" fill="#263238"/>
<path d="M490.517 143.015C499.694 143.121 512.529 166.396 512.529 166.396L498.298 180.88C492.025 177.537 486.956 172.314 483.801 165.944C478.375 154.879 481.141 142.922 490.517 143.015Z" fill="#407BFF"/>
<path opacity="0.3" d="M490.517 143.015C499.694 143.121 512.529 166.396 512.529 166.396L498.298 180.88C492.025 177.537 486.956 172.314 483.801 165.944C478.375 154.879 481.141 142.922 490.517 143.015Z" fill="black"/>
<path d="M446.986 153.628C444.898 163.962 443.395 185.203 448.542 227.244H499.721C500.12 220.434 496.821 190.709 501.197 158.789C501.472 156.751 501.322 154.677 500.756 152.7C500.191 150.723 499.223 148.883 497.913 147.298C496.602 145.713 494.978 144.416 493.142 143.489C491.307 142.562 489.299 142.025 487.245 141.911H486.673C479.426 141.498 472.162 141.498 464.915 141.911C462.521 142.137 460.153 142.483 458.052 142.855C455.34 143.335 452.835 144.619 450.862 146.54C448.889 148.461 447.539 150.93 446.986 153.628Z" fill="#407BFF"/>
<path opacity="0.2" d="M446.986 153.628C444.898 163.962 443.395 185.203 448.542 227.244H499.721C500.12 220.434 496.821 190.709 501.197 158.789C501.472 156.751 501.322 154.677 500.756 152.7C500.191 150.723 499.223 148.883 497.913 147.298C496.602 145.713 494.978 144.416 493.142 143.489C491.307 142.562 489.299 142.025 487.245 141.911H486.673C479.426 141.498 472.162 141.498 464.915 141.911C462.521 142.137 460.153 142.483 458.052 142.855C455.34 143.335 452.835 144.619 450.862 146.54C448.889 148.461 447.539 150.93 446.986 153.628Z" fill="black"/>
<path opacity="0.2" d="M458.757 174.922L451.868 170.24C445.217 172.408 444.872 178.872 445.217 188.208C450.937 186.772 457.52 181.345 458.757 174.922Z" fill="black"/>
<path opacity="0.2" d="M457.546 448.516L457.892 459.941H467.468L467.122 448.516H457.546Z" fill="black"/>
<path d="M486.913 108.847C485.822 118.29 485.663 123.876 480.622 128.544C473.041 135.554 461.59 130.752 459.834 121.203C458.252 112.611 460.3 98.5929 469.769 95.2014C471.836 94.4336 474.065 94.2128 476.242 94.5602C478.419 94.9076 480.469 95.8115 482.194 97.1843C483.918 98.5571 485.259 100.352 486.086 102.396C486.913 104.439 487.198 106.661 486.913 108.847Z" fill="#B55B52"/>
<path d="M466.75 112.89C463.811 113.555 462.481 106.626 465.42 103.966C462.76 102.636 458.917 100.708 457.64 97.8082C456.163 94.4832 460.153 90.4932 463.598 90.6661C462.481 88.445 464.928 82.5132 471.951 84.7476C478.973 86.982 482.271 90.44 482.271 90.44C482.271 90.44 484.586 82.7526 489.467 88.9637C493.789 94.4699 492.127 99.1914 492.127 99.1914C492.127 99.1914 498.564 105.296 496.901 109.831C495.973 112.485 494.072 114.686 491.581 115.989C491.581 115.989 492.552 126.629 484.732 129.289C476.911 131.949 471.977 126.629 472.642 123.517C467.588 123.69 462.428 117.04 466.75 112.89Z" fill="#263238"/>
<path d="M470.155 112.185C469.801 114.527 468.7 116.692 467.016 118.357C464.768 120.525 462.694 118.968 462.521 116.162C462.361 113.635 463.345 109.512 465.979 108.342C468.612 107.171 470.514 109.366 470.155 112.185Z" fill="#B55B52"/>
<path d="M549.024 458.597L540.512 461.656L532.053 439.751L540.565 436.705L549.024 458.597Z" fill="#B55B52"/>
<path d="M536.735 463.039C535.777 463.797 534.74 464.369 534.075 464.21C533.907 464.153 533.761 464.046 533.657 463.903C533.552 463.76 533.494 463.589 533.49 463.412C533.47 463.259 533.481 463.104 533.522 462.955C533.563 462.807 533.634 462.668 533.729 462.547C534.727 461.217 538.504 460.659 538.663 460.645C538.709 460.638 538.756 460.644 538.799 460.663C538.841 460.682 538.878 460.713 538.903 460.752C538.926 460.792 538.938 460.838 538.938 460.885C538.938 460.932 538.926 460.977 538.903 461.018C538.238 461.751 537.513 462.427 536.735 463.039ZM534.421 462.507C534.295 462.593 534.187 462.701 534.101 462.827C533.987 462.974 533.935 463.16 533.955 463.345C533.955 463.665 534.128 463.744 534.221 463.771C534.939 463.984 536.881 462.507 538.105 461.204C536.803 461.393 535.552 461.836 534.421 462.507Z" fill="#407BFF"/>
<path d="M538.849 461.044C538.824 461.054 538.796 461.054 538.77 461.044C537.546 461.35 534.487 461.124 533.968 460.153C533.849 459.927 533.796 459.568 534.248 459.129C534.409 458.972 534.601 458.85 534.811 458.77C535.022 458.69 535.246 458.654 535.471 458.664C537.027 458.664 538.796 460.592 538.876 460.672C538.895 460.704 538.905 460.741 538.905 460.778C538.905 460.816 538.895 460.853 538.876 460.885C538.883 460.912 538.884 460.94 538.88 460.968C538.875 460.995 538.865 461.021 538.849 461.044ZM534.66 459.409C534.619 459.432 534.583 459.464 534.554 459.502C534.261 459.781 534.341 459.927 534.367 459.98C534.673 460.552 536.881 460.885 538.238 460.725C537.501 459.921 536.527 459.371 535.458 459.156C535.17 459.139 534.886 459.229 534.66 459.409Z" fill="#407BFF"/>
<path d="M538.889 459.316L547.109 452.852C547.262 452.735 547.449 452.672 547.641 452.672C547.833 452.672 548.02 452.735 548.173 452.852L555.235 458.172C555.403 458.295 555.539 458.457 555.633 458.643C555.727 458.829 555.776 459.034 555.776 459.242C555.776 459.451 555.727 459.656 555.633 459.842C555.539 460.028 555.403 460.189 555.235 460.313C552.229 462.587 546.431 467.269 542.893 470.408C538.756 474.092 541.975 471.631 537.121 475.954C534.181 478.614 530.59 476.433 531.574 475.089C536.017 468.945 536.961 465.287 537.546 461.364C537.709 460.532 538.191 459.797 538.889 459.316Z" fill="#263238"/>
<path d="M399.093 177.382L395.356 169.336L385.181 175.626C385.181 175.626 388.533 182.476 395.475 181.731L399.093 177.382Z" fill="#B55B52"/>
<path d="M385.793 167.154L383.519 169.109C383.17 169.409 382.889 169.778 382.693 170.193C382.497 170.609 382.39 171.06 382.38 171.52C382.37 171.979 382.457 172.435 382.635 172.858C382.812 173.282 383.077 173.663 383.412 173.977L385.181 175.626L395.356 169.336L389.251 166.676C388.688 166.422 388.065 166.333 387.453 166.418C386.842 166.502 386.266 166.758 385.793 167.154Z" fill="#B55B52"/>
<path opacity="0.2" d="M532.053 439.751L536.416 451.043L544.928 447.997L540.565 436.705L532.053 439.751Z" fill="black"/>
<path d="M466.697 227.244C466.697 227.244 482.657 300.753 488.775 328.044C495.425 357.916 530.657 448.769 530.657 448.769L546.111 440.39C546.111 440.39 529.579 369.115 517.503 330.239C513.114 298.106 499.721 227.244 499.721 227.244H466.697Z" fill="#263238"/>
<path d="M526.308 444.22C526.228 444.22 529.473 450.218 529.473 450.218L548.598 443.036L547.082 437.198L526.308 444.22Z" fill="#407BFF"/>
<path opacity="0.3" d="M476.14 261.318C488.19 262.928 489.547 305.368 489.32 330.279C489.161 329.494 488.975 328.749 488.828 328.045C485.49 313.135 479.226 284.434 474.198 261.451C474.827 261.263 475.491 261.217 476.14 261.318Z" fill="black"/>
<path d="M448.542 227.244C448.542 227.244 444.473 298.798 445.138 327.978C445.829 358.342 454.355 457.733 454.355 457.733H470.567C470.567 457.733 473.227 360.111 474.318 330.305C475.528 297.8 482.192 227.244 482.192 227.244H448.542Z" fill="#263238"/>
<path d="M451.322 451.269C451.242 451.269 452.147 457.999 452.147 457.999H471.871L472.482 452L451.322 451.269Z" fill="#407BFF"/>
<path d="M462.335 158.576C460.122 162.513 457.657 166.303 454.953 169.921C452.271 173.49 449.39 176.905 446.321 180.148C443.289 183.38 440.084 186.439 436.799 189.339C433.513 192.238 430.082 195.005 426.996 197.545L425.906 198.449L425.001 198.768C422.8 199.554 420.445 199.813 418.125 199.527C416.221 199.316 414.353 198.86 412.566 198.17C409.571 196.904 406.757 195.244 404.2 193.236C401.837 191.4 399.615 189.39 397.55 187.224C396.539 186.173 395.582 185.069 394.638 183.966C393.693 182.862 392.815 181.744 391.898 180.481L397.151 175.573C399.186 177.089 401.381 178.739 403.575 180.148C405.692 181.595 407.885 182.927 410.145 184.138C412.151 185.245 414.28 186.111 416.489 186.719C417.308 186.94 418.155 187.043 419.003 187.025C419.448 187.029 419.886 186.909 420.267 186.679L418.285 187.902C421.53 184.87 424.469 182.157 427.395 179.297C430.321 176.438 433.074 173.538 435.721 170.546C438.368 167.553 440.895 164.468 443.222 161.236C445.55 158.004 447.704 154.759 449.739 151.434L462.335 158.576Z" fill="#B65B52"/>
<path d="M469.144 156.568C468.226 170.333 452.439 181.838 452.439 181.838L431.957 170.599C431.957 170.599 439.498 154.386 449.66 146.726C462.228 137.322 469.836 146.087 469.144 156.568Z" fill="#407BFF"/>
<path opacity="0.2" d="M469.144 156.568C468.226 170.333 452.439 181.838 452.439 181.838L431.957 170.599C431.957 170.599 439.498 154.386 449.66 146.726C462.228 137.322 469.836 146.087 469.144 156.568Z" fill="black"/>
</svg>
