<svg width="345" height="392" viewBox="0 0 345 392" fill="none" xmlns="http://www.w3.org/2000/svg">
<path d="M172.5 391.68C213.496 391.682 252.99 376.268 283.121 348.505C313.251 320.743 331.809 282.669 335.099 241.861C338.39 201.053 326.172 160.504 300.878 128.285C275.584 96.0662 239.069 74.54 198.6 67.9911V44.16H223.867C225.242 44.16 226.56 43.6147 227.532 42.644C228.504 41.6734 229.05 40.3569 229.05 38.9842V5.89572C229.05 4.52303 228.504 3.20656 227.532 2.23593C226.56 1.26529 225.242 0.719982 223.867 0.719971H121.133C119.758 0.719982 118.44 1.26529 117.468 2.23593C116.496 3.20656 115.95 4.52303 115.95 5.89572V38.9842C115.95 40.3569 116.496 41.6734 117.468 42.644C118.44 43.6147 119.758 44.16 121.133 44.16H146.4V67.9911C105.931 74.54 69.4159 96.0662 44.1219 128.285C18.8279 160.504 6.61023 201.053 9.90069 241.861C13.1912 282.669 31.7485 320.743 61.8789 348.505C92.0094 376.268 131.503 391.682 172.5 391.68ZM172.5 87.6C200.461 87.6 227.795 95.88 251.044 111.393C274.293 126.906 292.413 148.955 303.113 174.753C313.814 200.55 316.613 228.937 311.158 256.323C305.703 283.709 292.239 308.865 272.467 328.609C252.696 348.354 227.505 361.8 200.081 367.247C172.657 372.695 144.231 369.899 118.398 359.213C92.5652 348.528 70.4854 330.432 54.9509 307.215C39.4164 283.998 31.1249 256.703 31.1249 228.78C31.1675 191.35 46.076 155.465 72.5798 128.998C99.0835 102.53 135.018 87.6425 172.5 87.6ZM286.426 228.78H172.5V115.011C187.462 115.007 202.279 117.947 216.103 123.663C229.927 129.379 242.487 137.759 253.067 148.324C263.647 158.889 272.039 171.433 277.763 185.238C283.487 199.042 286.431 213.838 286.426 228.78ZM343.357 100.1L326.161 117.273C325.189 118.244 323.87 118.789 322.496 118.789C321.121 118.789 319.803 118.244 318.831 117.273L284.161 82.6509C283.189 81.6802 282.643 80.3637 282.643 78.991C282.643 77.6183 283.189 76.3018 284.161 75.331L301.358 58.1581C301.839 57.6775 302.41 57.2962 303.039 57.0361C303.668 56.776 304.342 56.6421 305.023 56.6421C305.703 56.6421 306.377 56.776 307.006 57.0361C307.635 57.2962 308.206 57.6775 308.688 58.1581L343.357 92.7802C343.839 93.2608 344.221 93.8314 344.481 94.4593C344.742 95.0873 344.876 95.7603 344.876 96.44C344.876 97.1197 344.742 97.7928 344.481 98.4207C344.221 99.0487 343.839 99.6192 343.357 100.1ZM18.839 117.273L1.64241 100.1C1.1611 99.6192 0.779305 99.0487 0.518822 98.4207C0.258338 97.7928 0.124268 97.1197 0.124268 96.44C0.124268 95.7603 0.258338 95.0873 0.518822 94.4593C0.779305 93.8314 1.1611 93.2608 1.64241 92.7802L36.3123 58.1581C36.7936 57.6775 37.3649 57.2962 37.9937 57.0361C38.6226 56.776 39.2965 56.6421 39.9772 56.6421C40.6578 56.6421 41.3318 56.776 41.9606 57.0361C42.5894 57.2962 43.1608 57.6775 43.6421 58.1581L60.8389 75.331C61.8109 76.3018 62.3569 77.6183 62.3569 78.991C62.3569 80.3637 61.8109 81.6802 60.8389 82.6509L26.1691 117.273C25.197 118.244 23.8787 118.789 22.5041 118.789C21.1294 118.789 19.8111 118.244 18.839 117.273Z" fill="#38436A"/>
</svg>
