<svg width="420" height="391" viewBox="0 0 420 391" fill="none" xmlns="http://www.w3.org/2000/svg">
<path d="M328.626 347.307C312.754 365.665 293.106 380.59 270.89 391H419.303V347.307H328.626Z" fill="#38436A"/>
<path d="M354.416 234.489C354.416 148.188 284.199 77.974 197.901 77.974C149.177 77.974 105.596 100.371 76.8831 135.389C71.4224 133.853 66.4988 131.111 62.463 127.347C55.5707 120.936 51.191 111.869 51.191 101.737C51.191 82.3766 66.9345 66.6331 86.2945 66.6331C89.2919 66.6331 92.1942 67.0819 95.018 67.7961L81.4922 95.1982L111.286 85.0857L152.574 71.0817L151.549 68.0843L128.487 0L114.535 28.244C105.553 24.7782 96.1023 22.9437 86.2912 22.9437C42.841 22.9437 7.49832 58.2929 7.49832 101.737C7.49832 127.72 20.1953 150.736 39.6536 165.094C44.0497 168.337 48.7734 171.141 53.8018 173.424C45.8154 192.195 41.3865 212.836 41.3865 234.489C41.3865 253.646 44.9899 272.226 51.7118 289.935L22.5867 302.54L92.3875 330.149L120.016 260.371L91.8142 272.573C87.4279 260.404 85.0726 247.648 85.0726 234.492C85.0726 172.275 135.694 121.667 197.898 121.667C260.102 121.667 310.723 172.278 310.723 234.492C310.723 296.699 260.102 347.307 197.898 347.307H0V391H197.901C284.202 391 354.416 320.793 354.416 234.489Z" fill="#38436A"/>
</svg>
